<?xml version="1.0" encoding="UTF-8"?>
<!DOCTYPE svg PUBLIC "-//W3C//DTD SVG 1.1//EN" "http://www.w3.org/Graphics/SVG/1.1/DTD/svg11.dtd">
<svg xmlns="http://www.w3.org/2000/svg" version="1.1" width="120px" height="80px" style="shape-rendering:geometricPrecision; text-rendering:geometricPrecision; image-rendering:optimizeQuality; fill-rule:evenodd; clip-rule:evenodd" xmlns:xlink="http://www.w3.org/1999/xlink">
<g><path style="opacity:0.999" fill="#fac52a" d="M 50.5,-0.5 C 52.5,-0.5 54.5,-0.5 56.5,-0.5C 58.8102,0.324982 60.8102,1.65832 62.5,3.5C 63.9816,8.01454 64.6483,12.6812 64.5,17.5C 59.5,17.5 54.5,17.5 49.5,17.5C 49.7678,15.901 49.4345,14.5676 48.5,13.5C 48.3757,11.4184 47.3757,9.9184 45.5,9C 42.8078,8.57022 40.1411,8.73688 37.5,9.5C 36.209,9.73731 35.209,9.40397 34.5,8.5C 38.9688,3.93305 44.3021,0.933055 50.5,-0.5 Z"/></g>
<g><path style="opacity:0.998" fill="#fbc430" d="M 117.5,2.5 C 114.278,7.26148 111.278,12.2615 108.5,17.5C 102.5,17.5 96.5,17.5 90.5,17.5C 99.0953,12.0886 107.595,6.42193 116,0.5C 116.717,1.0442 117.217,1.71087 117.5,2.5 Z"/></g>
<g><path style="opacity:1" fill="#f2c04c" d="M 34.5,8.5 C 35.209,9.40397 36.209,9.73731 37.5,9.5C 32.9006,12.4293 28.9006,16.096 25.5,20.5C 23.0764,23.0078 21.4097,26.0078 20.5,29.5C 18.7329,31.7916 17.7329,34.4582 17.5,37.5C 16.6618,37.8417 16.3284,38.5084 16.5,39.5C 15.8333,39.5 15.1667,39.5 14.5,39.5C 17.5332,27.6028 23.5332,17.4361 32.5,9C 33.0944,8.53566 33.7611,8.36899 34.5,8.5 Z"/></g>
<g><path style="opacity:0.993" fill="#f0a43b" d="M 117.5,2.5 C 118.711,8.31008 118.711,13.9767 117.5,19.5C 114.713,18.5233 111.713,18.19 108.5,18.5C 108.5,18.1667 108.5,17.8333 108.5,17.5C 111.278,12.2615 114.278,7.26148 117.5,2.5 Z"/></g>
<g><path style="opacity:1" fill="#2d64a8" d="M 48.5,13.5 C 48.8226,17.226 48.4892,20.8927 47.5,24.5C 39.9751,23.5244 32.6418,22.1911 25.5,20.5C 28.9006,16.096 32.9006,12.4293 37.5,9.5C 40.1411,8.73688 42.8078,8.57022 45.5,9C 47.3757,9.9184 48.3757,11.4184 48.5,13.5 Z"/></g>
<g><path style="opacity:1" fill="#f8b615" d="M 49.5,17.5 C 54.5,17.5 59.5,17.5 64.5,17.5C 64.552,19.9029 64.2186,22.2362 63.5,24.5C 62.962,26.1172 62.6287,27.7839 62.5,29.5C 58.1667,29.5 53.8333,29.5 49.5,29.5C 49.5,28.1667 49.5,26.8333 49.5,25.5C 49.5,22.8333 49.5,20.1667 49.5,17.5 Z"/></g>
<g><path style="opacity:1" fill="#ed9c3b" d="M 62.5,3.5 C 65.3619,6.55696 67.1953,10.2236 68,14.5C 68.8163,19.6842 68.6497,24.6842 67.5,29.5C 67.5,27.5 67.5,25.5 67.5,23.5C 66.0413,23.4326 64.7079,23.7659 63.5,24.5C 64.2186,22.2362 64.552,19.9029 64.5,17.5C 64.6483,12.6812 63.9816,8.01454 62.5,3.5 Z"/></g>
<g><path style="opacity:0.998" fill="#437dae" d="M 48.5,13.5 C 49.4345,14.5676 49.7678,15.901 49.5,17.5C 49.5,20.1667 49.5,22.8333 49.5,25.5C 48.816,28.5917 47.816,31.5917 46.5,34.5C 46.6621,32.4727 46.4955,30.4727 46,28.5C 45.5917,26.5904 44.4251,25.5904 42.5,25.5C 38.9624,26.7061 35.9624,28.7061 33.5,31.5C 28.9515,31.3755 24.6181,30.7089 20.5,29.5C 21.4097,26.0078 23.0764,23.0078 25.5,20.5C 32.6418,22.1911 39.9751,23.5244 47.5,24.5C 48.4892,20.8927 48.8226,17.226 48.5,13.5 Z"/></g>
<g><path style="opacity:1" fill="#f9b51f" d="M 90.5,17.5 C 96.5,17.5 102.5,17.5 108.5,17.5C 108.5,17.8333 108.5,18.1667 108.5,18.5C 106.568,21.3661 104.901,24.3661 103.5,27.5C 102.5,27.8333 101.833,28.5 101.5,29.5C 92.5,29.5 83.5,29.5 74.5,29.5C 74.5,28.5 74.5,27.5 74.5,26.5C 79.5016,22.9969 84.835,19.9969 90.5,17.5 Z"/></g>
<g><path style="opacity:1" fill="#e48229" d="M 108.5,18.5 C 111.713,18.19 114.713,18.5233 117.5,19.5C 117.813,23.0419 117.479,26.3752 116.5,29.5C 112.627,27.5698 108.294,26.9031 103.5,27.5C 104.901,24.3661 106.568,21.3661 108.5,18.5 Z"/></g>
<g><path style="opacity:1" fill="#e1742e" d="M 67.5,29.5 C 67.8294,32.2282 67.1628,34.5615 65.5,36.5C 65.5,35.5 65.5,34.5 65.5,33.5C 64.1667,33.5 62.8333,33.5 61.5,33.5C 61.4326,32.0413 61.7659,30.7079 62.5,29.5C 62.6287,27.7839 62.962,26.1172 63.5,24.5C 64.7079,23.7659 66.0413,23.4326 67.5,23.5C 67.5,25.5 67.5,27.5 67.5,29.5 Z"/></g>
<g><path style="opacity:1" fill="#dc6a26" d="M 103.5,27.5 C 108.294,26.9031 112.627,27.5698 116.5,29.5C 116.784,31.4147 116.451,33.0813 115.5,34.5C 110.025,33.5111 104.358,33.1778 98.5,33.5C 99.5,32.1667 100.5,30.8333 101.5,29.5C 101.833,28.5 102.5,27.8333 103.5,27.5 Z"/></g>
<g><path style="opacity:1" fill="#f6a726" d="M 49.5,25.5 C 49.5,26.8333 49.5,28.1667 49.5,29.5C 53.8333,29.5 58.1667,29.5 62.5,29.5C 61.7659,30.7079 61.4326,32.0413 61.5,33.5C 59.9647,37.0527 57.9647,40.386 55.5,43.5C 50.737,43.2256 46.0704,43.559 41.5,44.5C 43.1861,41.1279 44.8527,37.7946 46.5,34.5C 47.816,31.5917 48.816,28.5917 49.5,25.5 Z"/></g>
<g><path style="opacity:0.997" fill="#f8a828" d="M 74.5,26.5 C 74.5,27.5 74.5,28.5 74.5,29.5C 83.5,29.5 92.5,29.5 101.5,29.5C 100.5,30.8333 99.5,32.1667 98.5,33.5C 96.2133,37.1219 93.5466,40.4552 90.5,43.5C 82.9296,42.9463 75.5963,43.6129 68.5,45.5C 72.2712,42.2316 75.9378,38.7316 79.5,35C 77.6951,34.028 76.0284,32.8613 74.5,31.5C 73.2651,29.6837 73.2651,28.017 74.5,26.5 Z"/></g>
<g><path style="opacity:0.998" fill="#439ab7" d="M 20.5,29.5 C 24.6181,30.7089 28.9515,31.3755 33.5,31.5C 31.099,35.5423 28.7656,39.5423 26.5,43.5C 23.7508,43.7261 21.0841,43.3928 18.5,42.5C 17.5481,40.9547 17.2148,39.288 17.5,37.5C 17.7329,34.4582 18.7329,31.7916 20.5,29.5 Z"/></g>
<g><path style="opacity:0.995" fill="#d85a3a" d="M 61.5,33.5 C 62.8333,33.5 64.1667,33.5 65.5,33.5C 65.5,34.5 65.5,35.5 65.5,36.5C 62.1011,45.2334 56.7677,52.5668 49.5,58.5C 48.8333,58.5 48.5,58.8333 48.5,59.5C 47.5084,59.3284 46.8417,59.6618 46.5,60.5C 46.1667,60.5 45.8333,60.5 45.5,60.5C 44.5084,60.3284 43.8417,60.6618 43.5,61.5C 41.1932,62.6534 38.8599,63.8201 36.5,65C 34.2884,65.7891 32.2884,65.6225 30.5,64.5C 40.6198,59.6095 48.9532,52.6095 55.5,43.5C 57.9647,40.386 59.9647,37.0527 61.5,33.5 Z"/></g>
<g><path style="opacity:0.998" fill="#d65335" d="M 98.5,33.5 C 104.358,33.1778 110.025,33.5111 115.5,34.5C 114.99,39.6991 113.657,44.6991 111.5,49.5C 108.138,50.9002 104.971,50.5669 102,48.5C 87.1888,62.3259 70.0221,72.1593 50.5,78C 47.5184,78.498 44.5184,78.6646 41.5,78.5C 36.8689,77.6709 32.2022,77.0042 27.5,76.5C 23.6423,75.068 19.9756,73.4013 16.5,71.5C 15.448,71.6495 14.448,71.4828 13.5,71C 17.9142,70.4365 18.5809,68.6032 15.5,65.5C 15.6236,64.8933 15.9569,64.56 16.5,64.5C 16.5,65.1667 16.8333,65.5 17.5,65.5C 24.9997,73.8297 34.3331,76.663 45.5,74C 54.7211,71.3895 63.0544,67.2228 70.5,61.5C 74.1464,59.1829 77.4797,56.5162 80.5,53.5C 84.1667,50.5 87.5,47.1667 90.5,43.5C 93.5466,40.4552 96.2133,37.1219 98.5,33.5 Z"/></g>
<g><path style="opacity:1" fill="#f6a346" d="M 14.5,39.5 C 15.1667,39.5 15.8333,39.5 16.5,39.5C 16.2743,44.5624 16.6076,49.5624 17.5,54.5C 16.2921,53.7659 14.9587,53.4326 13.5,53.5C 13.5,55.5 13.5,57.5 13.5,59.5C 12.8362,57.1903 12.5029,54.6903 12.5,52C 12.3938,47.5731 13.0605,43.4064 14.5,39.5 Z"/></g>
<g><path style="opacity:1" fill="#f59420" d="M 90.5,43.5 C 87.5,47.1667 84.1667,50.5 80.5,53.5C 74.1579,53.6662 67.8246,53.4995 61.5,53C 62.7101,51.9609 63.7101,50.7942 64.5,49.5C 65.5,47.8333 66.8333,46.5 68.5,45.5C 75.5963,43.6129 82.9296,42.9463 90.5,43.5 Z"/></g>
<g><path style="opacity:1" fill="#4ab6b8" d="M 17.5,37.5 C 17.2148,39.288 17.5481,40.9547 18.5,42.5C 21.0841,43.3928 23.7508,43.7261 26.5,43.5C 25.1851,48.744 24.5185,54.0773 24.5,59.5C 24.33,60.8221 24.6634,61.9887 25.5,63C 21.4275,61.755 18.7608,58.9217 17.5,54.5C 16.6076,49.5624 16.2743,44.5624 16.5,39.5C 16.3284,38.5084 16.6618,37.8417 17.5,37.5 Z"/></g>
<g><path style="opacity:0.541" fill="#ffcb98" d="M 37.5,49.5 C 36.1667,52.8333 33.8333,55.1667 30.5,56.5C 32.5,53.8333 34.8333,51.5 37.5,49.5 Z"/></g>
<g><path style="opacity:0.999" fill="#f68f30" d="M 64.5,49.5 C 63.7101,50.7942 62.7101,51.9609 61.5,53C 67.8246,53.4995 74.1579,53.6662 80.5,53.5C 77.4797,56.5162 74.1464,59.1829 70.5,61.5C 61.7925,61.2555 53.1258,61.5888 44.5,62.5C 44.5,61.8333 44.1667,61.5 43.5,61.5C 43.8417,60.6618 44.5084,60.3284 45.5,60.5C 45.8333,61.8333 46.1667,61.8333 46.5,60.5C 47.4916,60.6716 48.1583,60.3382 48.5,59.5C 49.1667,59.5 49.5,59.1667 49.5,58.5C 54.7621,55.8977 59.7621,52.8977 64.5,49.5 Z"/></g>
<g><path style="opacity:1" fill="#f38925" d="M 55.5,43.5 C 48.9532,52.6095 40.6198,59.6095 30.5,64.5C 26.2315,65.3726 21.8982,65.7059 17.5,65.5C 16.8333,65.5 16.5,65.1667 16.5,64.5C 15.9744,62.7697 14.9744,61.4363 13.5,60.5C 13.5,60.1667 13.5,59.8333 13.5,59.5C 13.5,57.5 13.5,55.5 13.5,53.5C 14.9587,53.4326 16.2921,53.7659 17.5,54.5C 18.7608,58.9217 21.4275,61.755 25.5,63C 24.6634,61.9887 24.33,60.8221 24.5,59.5C 26.5168,58.4706 28.5168,57.4706 30.5,56.5C 33.8333,55.1667 36.1667,52.8333 37.5,49.5C 38.604,47.6115 39.9373,45.9448 41.5,44.5C 46.0704,43.559 50.737,43.2256 55.5,43.5 Z"/></g>
<g><path style="opacity:1" fill="#f27926" d="M 43.5,61.5 C 44.1667,61.5 44.5,61.8333 44.5,62.5C 53.1258,61.5888 61.7925,61.2555 70.5,61.5C 63.0544,67.2228 54.7211,71.3895 45.5,74C 34.3331,76.663 24.9997,73.8297 17.5,65.5C 21.8982,65.7059 26.2315,65.3726 30.5,64.5C 32.2884,65.6225 34.2884,65.7891 36.5,65C 38.8599,63.8201 41.1932,62.6534 43.5,61.5 Z"/></g>
<g><path style="opacity:0.997" fill="#f4874d" d="M 13.5,60.5 C 14.9744,61.4363 15.9744,62.7697 16.5,64.5C 15.9569,64.56 15.6236,64.8933 15.5,65.5C 18.5809,68.6032 17.9142,70.4365 13.5,71C 14.448,71.4828 15.448,71.6495 16.5,71.5C 13.0915,72.9034 9.42479,73.5701 5.5,73.5C 3.90097,73.7678 2.56764,73.4345 1.5,72.5C 5.63261,70.6 9.63261,68.4333 13.5,66C 14.1383,64.2933 14.1383,62.46 13.5,60.5 Z"/></g>
<g><path style="opacity:0.216" fill="#faddd1" d="M 1.5,72.5 C 2.56764,73.4345 3.90097,73.7678 5.5,73.5C 3.73535,74.4614 1.73535,74.7947 -0.5,74.5C -0.5,74.1667 -0.5,73.8333 -0.5,73.5C 0.166667,73.1667 0.833333,72.8333 1.5,72.5 Z"/></g>
<g><path style="opacity:0.775" fill="#e9917d" d="M 27.5,76.5 C 32.2022,77.0042 36.8689,77.6709 41.5,78.5C 41.5,78.8333 41.5,79.1667 41.5,79.5C 40.5,79.5 39.5,79.5 38.5,79.5C 34.7328,78.9028 31.0661,77.9028 27.5,76.5 Z"/></g>
</svg>
