<?xml version="1.0" standalone="no"?>
<!DOCTYPE svg PUBLIC "-//W3C//DTD SVG 20010904//EN"
 "http://www.w3.org/TR/2001/REC-SVG-20010904/DTD/svg10.dtd">
<svg version="1.0" xmlns="http://www.w3.org/2000/svg"
 width="512.000000pt" height="512.000000pt" viewBox="0 0 512.000000 512.000000"
 preserveAspectRatio="xMidYMid meet">

<g transform="translate(0.000000,512.000000) scale(0.100000,-0.100000)"
fill="#000000" stroke="none">
<path d="M4311 5094 c-61 -16 -105 -38 -628 -310 l-372 -194 -188 0 c-370 0
-834 -33 -1368 -96 -98 -12 -138 -79 -80 -134 l25 -24 233 27 c410 47 863 77
1177 77 l169 0 10 -37 c62 -235 123 -498 115 -500 -5 -2 -208 -131 -451 -286
l-442 -283 -108 8 c-818 58 -1742 239 -2109 414 -87 41 -144 88 -144 119 0 24
73 78 159 117 198 92 578 200 940 268 188 36 211 47 211 99 0 16 -9 39 -19 52
-26 32 -59 30 -286 -16 -586 -117 -960 -255 -1096 -403 -79 -86 -79 -142 1
-226 270 -285 1397 -534 2700 -596 118 -5 291 -10 383 -10 l169 0 454 -236
c250 -130 477 -245 506 -256 31 -12 88 -22 139 -25 260 -16 528 141 639 372
51 108 65 170 65 300 0 134 -14 192 -72 314 -37 77 -59 108 -122 170 l-76 76
71 70 c80 79 134 168 172 283 21 64 25 97 26 197 1 141 -11 198 -66 315 -58
121 -167 229 -299 294 -147 73 -309 95 -438 60z m259 -149 c130 -35 264 -132
327 -237 18 -29 43 -92 54 -138 59 -234 -38 -478 -237 -596 l-41 -24 -559 2
-559 3 -62 250 c-34 138 -62 257 -62 265 0 16 834 454 906 477 53 16 168 15
233 -2z m166 -1183 c184 -119 272 -356 216 -579 -26 -104 -60 -162 -137 -238
-123 -122 -326 -184 -470 -144 -54 15 -906 459 -912 476 -3 7 23 128 58 268
l64 255 561 0 561 0 59 -38z m-1397 -217 c-22 -88 -44 -177 -50 -197 l-10 -38
-182 1 c-100 1 -214 4 -253 8 l-70 6 300 192 c166 105 302 190 303 189 1 -1
-16 -73 -38 -161z"/>
<path d="M4340 4785 c-30 -14 -203 -103 -384 -198 -230 -120 -331 -178 -338
-193 -16 -35 36 -242 69 -271 l24 -23 463 0 462 0 40 30 c134 98 182 326 102
483 -53 104 -186 187 -312 194 -61 4 -79 0 -126 -22z m183 -141 c108 -37 164
-142 139 -262 -7 -33 -23 -70 -40 -92 l-29 -35 -401 -3 -401 -2 -9 32 c-5 18
-6 36 -3 40 3 4 148 81 321 172 201 105 326 165 346 165 17 1 51 -6 77 -15z"/>
<path d="M3687 3630 c-21 -17 -31 -42 -52 -136 -21 -88 -25 -121 -17 -138 7
-16 119 -80 384 -217 l373 -194 80 0 c71 0 89 4 147 33 77 37 147 101 177 160
81 159 29 391 -107 486 l-38 26 -461 0 c-446 0 -461 -1 -486 -20z m927 -159
c29 -30 56 -104 56 -153 0 -118 -86 -212 -205 -226 -37 -4 -69 10 -360 163
-176 92 -323 170 -326 173 -3 4 -2 22 3 40 l9 32 397 0 398 0 28 -29z"/>
<path d="M2540 4121 c-139 -43 -215 -179 -176 -315 51 -174 257 -240 401 -130
56 43 87 104 93 184 4 61 1 76 -22 124 -15 31 -44 69 -64 86 -62 51 -160 73
-232 51z m119 -155 c31 -17 51 -54 51 -97 0 -22 -10 -41 -35 -66 -32 -32 -39
-35 -78 -30 -75 10 -115 82 -81 146 31 57 87 76 143 47z"/>
<path d="M21 2734 c-12 -15 -21 -35 -21 -45 0 -11 38 -96 85 -189 l85 -170 0
-669 c0 -639 1 -670 19 -692 26 -32 86 -32 112 0 16 19 19 40 19 126 l0 103
326 188 c180 104 331 191 335 192 5 2 9 -240 9 -537 l0 -541 -335 0 -335 0 0
99 c0 84 -3 102 -21 125 -28 36 -80 36 -108 0 -19 -24 -21 -40 -21 -155 l0
-129 -85 -170 c-47 -93 -85 -179 -85 -190 0 -12 11 -32 25 -45 l24 -25 1214 0
1214 0 21 23 c12 13 22 33 22 45 0 12 -38 99 -85 192 l-85 170 0 945 0 945 85
170 c47 93 85 180 85 193 0 13 -10 33 -23 45 l-23 22 -1216 0 -1217 0 -20 -26z
m877 -209 c23 -47 42 -90 42 -95 0 -6 -117 -10 -323 -10 l-322 0 -48 95 -47
95 328 0 328 0 42 -85z m1422 80 c0 -3 -20 -46 -45 -95 l-45 -90 -555 0 -555
0 -45 90 c-25 49 -45 92 -45 95 0 3 290 5 645 5 355 0 645 -2 645 -5z m-1332
-397 l-3 -62 -332 -192 -333 -192 0 254 0 254 335 0 336 0 -3 -62z m1210 10
l-3 -53 -515 -297 c-283 -164 -521 -298 -527 -298 -10 0 -13 77 -13 350 l0
350 531 0 530 0 -3 -52z m2 -335 l0 -108 -213 -122 c-116 -67 -218 -128 -225
-135 -21 -21 -15 -85 10 -102 40 -28 72 -18 223 69 81 47 160 92 176 101 l29
15 0 -109 0 -108 -514 -297 c-282 -163 -521 -299 -530 -303 -15 -6 -16 4 -14
102 l3 108 205 118 c113 65 215 127 228 139 53 50 8 129 -68 119 -8 -1 -92
-46 -187 -101 -95 -54 -175 -99 -178 -99 -3 0 -5 47 -5 105 l0 105 38 24 c20
13 228 134 462 269 234 134 452 261 485 280 33 20 63 36 68 37 4 0 7 -48 7
-107z m-1210 -20 l-1 -108 -286 -165 c-158 -91 -309 -178 -335 -193 l-49 -28
3 112 3 111 325 189 c179 103 328 188 333 189 4 0 7 -48 7 -107z m1210 -1008
l0 -355 -531 0 -530 0 3 51 3 52 525 303 c289 167 526 303 528 304 1 0 2 -160
2 -355z m-1297 -600 l-48 -95 -327 0 c-181 0 -328 2 -328 5 0 3 20 46 45 95
l45 90 330 0 330 0 -47 -95z m1372 5 c25 -49 45 -92 45 -95 0 -3 -293 -5 -650
-5 l-650 0 41 83 c23 45 46 88 51 95 8 9 133 12 564 12 l554 0 45 -90z"/>
<path d="M3372 2601 c-61 -21 -114 -68 -145 -126 -27 -52 -28 -155 -3 -205 36
-70 123 -140 175 -140 16 0 22 -10 30 -52 25 -127 101 -536 101 -546 0 -6 -17
-16 -37 -22 -21 -7 -80 -33 -131 -57 -51 -25 -94 -44 -96 -42 -1 2 -30 68 -63
146 -47 109 -58 145 -49 152 7 6 26 34 41 63 90 164 -28 361 -216 362 -179 0
-300 -194 -219 -354 38 -74 114 -127 199 -137 l47 -5 69 -160 68 -160 -71 -71
c-130 -133 -187 -247 -187 -377 0 -148 86 -250 240 -285 l50 -11 5 -261 c5
-239 7 -263 24 -282 19 -21 19 -21 796 -21 777 0 777 0 796 21 17 19 19 43 24
282 l5 261 50 11 c234 52 310 268 178 504 -74 132 -278 310 -429 372 -30 13
-54 28 -54 34 0 7 27 156 60 331 33 175 60 329 60 340 0 29 -29 62 -62 70 -22
5 -33 0 -56 -22 -26 -27 -31 -50 -86 -344 -32 -173 -61 -318 -65 -322 -3 -3
-44 2 -91 13 -47 10 -98 19 -113 19 -15 0 -30 6 -33 14 -3 7 9 87 25 176 17
90 31 173 31 185 0 30 -29 63 -62 71 -22 5 -33 0 -56 -22 -25 -26 -31 -48 -62
-216 -31 -172 -36 -188 -55 -188 -41 0 -251 -22 -287 -30 -31 -6 -38 -5 -42 9
-3 9 -28 140 -56 293 l-52 276 42 38 c60 55 84 106 84 184 0 170 -164 288
-322 231z m148 -166 c35 -36 34 -95 -3 -132 -60 -61 -162 -19 -162 66 0 89
101 130 165 66z m-482 -472 c29 -18 45 -58 37 -94 -8 -37 -59 -79 -95 -79 -36
0 -87 42 -95 80 -9 39 18 88 58 105 34 15 58 12 95 -12z m1206 -539 c171 -29
361 -104 476 -189 75 -55 177 -169 212 -238 25 -49 32 -75 32 -124 1 -55 -2
-65 -29 -93 -53 -55 -92 -60 -455 -60 -316 0 -328 -1 -354 -21 -34 -27 -36
-79 -4 -109 21 -19 34 -20 285 -20 l263 0 0 -205 0 -205 -670 0 -670 0 0 205
0 205 259 0 c143 0 267 3 276 6 26 10 45 63 34 93 -20 50 -21 50 -375 51 -368
0 -406 5 -459 60 -26 27 -30 39 -30 88 0 147 162 336 380 445 247 123 532 161
829 111z"/>
</g>
</svg>
