<?xml version="1.0" encoding="UTF-8"?>
<!DOCTYPE svg PUBLIC "-//W3C//DTD SVG 1.1//EN" "http://www.w3.org/Graphics/SVG/1.1/DTD/svg11.dtd">
<svg xmlns="http://www.w3.org/2000/svg" version="1.1" width="79px" height="98px" style="shape-rendering:geometricPrecision; text-rendering:geometricPrecision; image-rendering:optimizeQuality; fill-rule:evenodd; clip-rule:evenodd" xmlns:xlink="http://www.w3.org/1999/xlink">
<g><path style="opacity:0.883" fill="#f4f8f6" d="M 0.5,-0.5 C 25.8333,-0.5 51.1667,-0.5 76.5,-0.5C 76.6666,28.1686 76.5,56.8353 76,85.5C 74.5806,86.4601 73.0806,87.2935 71.5,88C 62.7983,88.8832 54.1316,89.8832 45.5,91C 42.9787,92.5579 41.312,94.7245 40.5,97.5C 39.5,97.5 38.5,97.5 37.5,97.5C 36.4566,94.9438 34.7899,92.7772 32.5,91C 23.8684,89.8832 15.2017,88.8832 6.5,88C 4.15226,87.6541 2.31892,86.4875 1,84.5C 0.500023,56.1686 0.333356,27.8353 0.5,-0.5 Z"/></g>
<g><path style="opacity:1" fill="#01652c" d="M 72.5,2.5 C 72.5,21.8333 72.5,41.1667 72.5,60.5C 70.1667,60.5 67.8333,60.5 65.5,60.5C 62.8333,60.5 60.1667,60.5 57.5,60.5C 52.1667,60.5 46.8333,60.5 41.5,60.5C 38.5,60.5 35.5,60.5 32.5,60.5C 23.2094,60.9364 13.876,60.9364 4.5,60.5C 4.5,41.1667 4.5,21.8333 4.5,2.5C 27.1667,2.5 49.8333,2.5 72.5,2.5 Z"/></g>
<g><path style="opacity:1" fill="#03672f" d="M 56.5,51.5 C 54.4884,52.0138 52.4884,52.1805 50.5,52C 58.3441,47.0899 58.0108,46.4232 49.5,50C 51.0414,48.6288 52.3747,47.1288 53.5,45.5C 56.8991,43.6117 59.8991,41.1117 62.5,38C 64.5767,37.8078 66.5767,37.3078 68.5,36.5C 67.3112,35.5713 65.9778,35.238 64.5,35.5C 61.7097,35.7776 59.2097,35.1109 57,33.5C 55.5936,34.4138 54.0936,35.0805 52.5,35.5C 53.0283,34.1526 53.195,32.8193 53,31.5C 52.1237,33.6355 50.6237,34.9688 48.5,35.5C 47.4265,34.7494 47.2599,33.7494 48,32.5C 50.4985,30.583 53.1651,28.9164 56,27.5C 57.373,25.3046 57.7063,22.9712 57,20.5C 52.329,25.2623 46.829,28.0957 40.5,29C 39.0894,26.0035 38.0894,22.8369 37.5,19.5C 32.8539,16.1859 28.5205,12.5192 24.5,8.5C 24.5,7.83333 24.5,7.16667 24.5,6.5C 24.5858,5.5041 24.2524,4.67076 23.5,4C 39.4965,3.50007 55.4965,3.33341 71.5,3.5C 71.6666,17.8372 71.4999,32.1705 71,46.5C 66.3088,48.5965 61.4754,50.2631 56.5,51.5 Z"/></g>
<g><path style="opacity:1" fill="#01672e" d="M 21.5,4.5 C 21.5106,6.01739 22.1772,7.18405 23.5,8C 21.9532,8.3334 20.6199,7.8334 19.5,6.5C 19.891,7.71846 19.2244,8.5518 17.5,9C 17.8333,9.33333 18.1667,9.66667 18.5,10C 17.552,10.4828 16.552,10.6495 15.5,10.5C 15.7377,13.0685 17.071,14.7352 19.5,15.5C 21.5041,16.6728 23.0041,18.3395 24,20.5C 24.3033,24.0043 25.1366,27.3376 26.5,30.5C 26.6309,31.3764 26.2975,32.0431 25.5,32.5C 24.6667,31.5 23.8333,30.5 23,29.5C 24.1234,32.8567 25.6234,36.19 27.5,39.5C 26.1667,39.5 24.8333,39.5 23.5,39.5C 24.1098,40.391 24.4431,41.391 24.5,42.5C 22.7085,42.634 21.0418,42.3007 19.5,41.5C 17.1079,43.0536 14.4412,44.3869 11.5,45.5C 13.3435,45.7552 15.3435,45.9219 17.5,46C 18.9101,47.3717 20.5767,48.205 22.5,48.5C 23.6594,50.2503 25.326,51.2503 27.5,51.5C 27.8333,52.1667 28.1667,52.8333 28.5,53.5C 26.8828,52.962 25.2161,52.6287 23.5,52.5C 24.842,53.793 26.5087,54.6264 28.5,55C 27.8333,55.1667 27.1667,55.3333 26.5,55.5C 20.5453,54.0063 14.5453,53.1729 8.5,53C 11.6282,53.8412 14.6282,54.6746 17.5,55.5C 13.6002,56.4299 9.60023,56.7633 5.5,56.5C 5.33339,39.1635 5.50006,21.8301 6,4.5C 11.266,3.17574 16.4327,3.17574 21.5,4.5 Z"/></g>
<g><path style="opacity:1" fill="#f5f9f8" d="M 24.5,8.5 C 28.5205,12.5192 32.8539,16.1859 37.5,19.5C 38.0894,22.8369 39.0894,26.0035 40.5,29C 46.829,28.0957 52.329,25.2623 57,20.5C 57.7063,22.9712 57.373,25.3046 56,27.5C 53.1651,28.9164 50.4985,30.583 48,32.5C 47.2599,33.7494 47.4265,34.7494 48.5,35.5C 49.8333,36.8333 51.1667,36.8333 52.5,35.5C 54.0936,35.0805 55.5936,34.4138 57,33.5C 59.2097,35.1109 61.7097,35.7776 64.5,35.5C 61.7131,36.4767 58.7131,36.81 55.5,36.5C 54.1667,37.1667 53.1667,38.1667 52.5,39.5C 51.5,39.5 50.5,39.5 49.5,39.5C 46.9407,39.1984 44.6074,39.5318 42.5,40.5C 42.0046,42.4817 41.5046,44.4817 41,46.5C 40.8091,44.2922 40.3091,42.2922 39.5,40.5C 38.5,40.5 37.5,40.5 36.5,40.5C 36.5,42.1667 36.5,43.8333 36.5,45.5C 36.1667,45.5 35.8333,45.5 35.5,45.5C 35.762,44.0222 35.4287,42.6888 34.5,41.5C 33.7025,41.9569 33.3691,42.6236 33.5,43.5C 32.0236,41.5682 30.3569,41.2348 28.5,42.5C 28.1667,42.5 27.8333,42.5 27.5,42.5C 26.5,42.5 25.5,42.5 24.5,42.5C 24.4431,41.391 24.1098,40.391 23.5,39.5C 24.8333,39.5 26.1667,39.5 27.5,39.5C 29.3464,39.7778 30.6798,39.1112 31.5,37.5C 30.0569,34.9235 28.3902,32.5901 26.5,30.5C 25.1366,27.3376 24.3033,24.0043 24,20.5C 23.0041,18.3395 21.5041,16.6728 19.5,15.5C 19.5774,14.2502 20.244,13.4169 21.5,13C 21.0426,12.586 20.7093,12.086 20.5,11.5C 21.7161,10.9041 23.0494,10.7374 24.5,11C 23.4019,10.2303 23.4019,9.39695 24.5,8.5 Z"/></g>
<g><path style="opacity:1" fill="#6aab8e" d="M 21.5,4.5 C 22.5,5.16667 23.5,5.83333 24.5,6.5C 24.5,7.16667 24.5,7.83333 24.5,8.5C 23.4019,9.39695 23.4019,10.2303 24.5,11C 23.0494,10.7374 21.7161,10.9041 20.5,11.5C 20.7093,12.086 21.0426,12.586 21.5,13C 20.244,13.4169 19.5774,14.2502 19.5,15.5C 17.071,14.7352 15.7377,13.0685 15.5,10.5C 16.552,10.6495 17.552,10.4828 18.5,10C 18.1667,9.66667 17.8333,9.33333 17.5,9C 19.2244,8.5518 19.891,7.71846 19.5,6.5C 20.6199,7.8334 21.9532,8.3334 23.5,8C 22.1772,7.18405 21.5106,6.01739 21.5,4.5 Z"/></g>
<g><path style="opacity:1" fill="#318354" d="M 26.5,30.5 C 28.3902,32.5901 30.0569,34.9235 31.5,37.5C 30.6798,39.1112 29.3464,39.7778 27.5,39.5C 25.6234,36.19 24.1234,32.8567 23,29.5C 23.8333,30.5 24.6667,31.5 25.5,32.5C 26.2975,32.0431 26.6309,31.3764 26.5,30.5 Z"/></g>
<g><path style="opacity:1" fill="#6baf92" d="M 52.5,35.5 C 51.1667,36.8333 49.8333,36.8333 48.5,35.5C 50.6237,34.9688 52.1237,33.6355 53,31.5C 53.195,32.8193 53.0283,34.1526 52.5,35.5 Z"/></g>
<g><path style="opacity:1" fill="#63ac8e" d="M 23.5,39.5 C 21.2435,38.4382 20.0768,36.7715 20,34.5C 21.8022,35.7893 22.9688,37.4559 23.5,39.5 Z"/></g>
<g><path style="opacity:1" fill="#2d8d63" d="M 64.5,35.5 C 65.9778,35.238 67.3112,35.5713 68.5,36.5C 66.5767,37.3078 64.5767,37.8078 62.5,38C 59.8991,41.1117 56.8991,43.6117 53.5,45.5C 55.6281,42.8697 57.9614,40.3697 60.5,38C 58.8659,37.5065 57.1992,37.3398 55.5,37.5C 55.5,37.1667 55.5,36.8333 55.5,36.5C 58.7131,36.81 61.7131,36.4767 64.5,35.5 Z"/></g>
<g><path style="opacity:1" fill="#41a07c" d="M 19.5,41.5 C 17.4559,40.9688 15.7893,39.8022 14.5,38C 16.7715,38.0768 18.4382,39.2435 19.5,41.5 Z"/></g>
<g><path style="opacity:1" fill="#7db69d" d="M 55.5,36.5 C 55.5,36.8333 55.5,37.1667 55.5,37.5C 54.8763,39.754 53.543,41.4206 51.5,42.5C 51.5569,41.391 51.8902,40.391 52.5,39.5C 53.1667,38.1667 54.1667,37.1667 55.5,36.5 Z"/></g>
<g><path style="opacity:1" fill="#016328" d="M 55.5,37.5 C 57.1992,37.3398 58.8659,37.5065 60.5,38C 57.9614,40.3697 55.6281,42.8697 53.5,45.5C 51.2843,46.2026 49.451,47.5359 48,49.5C 47.5357,48.9056 47.369,48.2389 47.5,47.5C 49.5869,46.4154 50.9202,44.7488 51.5,42.5C 53.543,41.4206 54.8763,39.754 55.5,37.5 Z"/></g>
<g><path style="opacity:1" fill="#086429" d="M 49.5,39.5 C 50.5,39.5 51.5,39.5 52.5,39.5C 51.8902,40.391 51.5569,41.391 51.5,42.5C 49.8333,43.5 48.5,44.8333 47.5,46.5C 46.9569,46.44 46.6236,46.1067 46.5,45.5C 47.5588,43.4664 48.5588,41.4664 49.5,39.5 Z"/></g>
<g><path style="opacity:1" fill="#086930" d="M 35.5,45.5 C 34.8333,44.8333 34.1667,44.1667 33.5,43.5C 33.3691,42.6236 33.7025,41.9569 34.5,41.5C 35.4287,42.6888 35.762,44.0222 35.5,45.5 Z"/></g>
<g><path style="opacity:1" fill="#85bca4" d="M 19.5,41.5 C 21.0418,42.3007 22.7085,42.634 24.5,42.5C 25.5,42.5 26.5,42.5 27.5,42.5C 28.1237,44.754 29.457,46.4206 31.5,47.5C 31.5912,49.6977 30.9245,50.0311 29.5,48.5C 28.1571,45.8172 26.1571,44.3172 23.5,44C 25.0414,45.3712 26.3747,46.8712 27.5,48.5C 25.1775,47.1843 22.8442,45.8509 20.5,44.5C 19.8333,44.6667 19.1667,44.8333 18.5,45C 20.0931,45.9487 21.4264,47.1154 22.5,48.5C 20.5767,48.205 18.9101,47.3717 17.5,46C 15.3435,45.9219 13.3435,45.7552 11.5,45.5C 14.4412,44.3869 17.1079,43.0536 19.5,41.5 Z"/></g>
<g><path style="opacity:1" fill="#015f23" d="M 29.5,48.5 C 28.8333,48.5 28.1667,48.5 27.5,48.5C 26.3747,46.8712 25.0414,45.3712 23.5,44C 26.1571,44.3172 28.1571,45.8172 29.5,48.5 Z"/></g>
<g><path style="opacity:1" fill="#026227" d="M 27.5,42.5 C 27.8333,42.5 28.1667,42.5 28.5,42.5C 29.8897,43.8993 30.8897,45.5659 31.5,47.5C 29.457,46.4206 28.1237,44.754 27.5,42.5 Z"/></g>
<g><path style="opacity:1" fill="#8ec0ab" d="M 51.5,42.5 C 50.9202,44.7488 49.5869,46.4154 47.5,47.5C 47.5,47.1667 47.5,46.8333 47.5,46.5C 48.5,44.8333 49.8333,43.5 51.5,42.5 Z"/></g>
<g><path style="opacity:1" fill="#96b9aa" d="M 72.5,2.5 C 73.8333,25.5 73.8333,48.5 72.5,71.5C 72.5,70.5 72.5,69.5 72.5,68.5C 67.8215,68.6658 63.1548,68.4992 58.5,68C 63.6059,68.1138 68.2726,67.2805 72.5,65.5C 72.5,63.8333 72.5,62.1667 72.5,60.5C 72.5,41.1667 72.5,21.8333 72.5,2.5 Z"/></g>
<g><path style="opacity:1" fill="#026327" d="M 27.5,48.5 C 28.1667,49.5 28.8333,50.5 29.5,51.5C 28.8333,51.5 28.1667,51.5 27.5,51.5C 26.3406,49.7497 24.674,48.7497 22.5,48.5C 21.4264,47.1154 20.0931,45.9487 18.5,45C 19.1667,44.8333 19.8333,44.6667 20.5,44.5C 22.8442,45.8509 25.1775,47.1843 27.5,48.5 Z"/></g>
<g><path style="opacity:1" fill="#569d79" d="M 28.5,42.5 C 30.3569,41.2348 32.0236,41.5682 33.5,43.5C 34.1667,44.1667 34.8333,44.8333 35.5,45.5C 35.8333,45.5 36.1667,45.5 36.5,45.5C 36.5875,48.5983 36.0875,48.9316 35,46.5C 34.6827,48.3008 34.016,48.6341 33,47.5C 33.1484,48.825 32.9817,49.9916 32.5,51C 31.5838,51.3742 30.7504,51.8742 30,52.5C 29.6012,52.2716 29.4346,51.9382 29.5,51.5C 28.8333,50.5 28.1667,49.5 27.5,48.5C 28.1667,48.5 28.8333,48.5 29.5,48.5C 30.9245,50.0311 31.5912,49.6977 31.5,47.5C 30.8897,45.5659 29.8897,43.8993 28.5,42.5 Z"/></g>
<g><path style="opacity:1" fill="#3b8559" d="M 39.5,40.5 C 40.3091,42.2922 40.8091,44.2922 41,46.5C 41.5046,44.4817 42.0046,42.4817 42.5,40.5C 43.1174,42.3208 43.284,44.3208 43,46.5C 43.8333,44.8333 44.6667,43.1667 45.5,41.5C 46.0016,40.479 46.6683,40.3123 47.5,41C 46.086,42.9935 45.086,45.1602 44.5,47.5C 43.7784,47.9175 43.2784,48.5842 43,49.5C 42.3333,46.8333 41.6667,46.8333 41,49.5C 39.7114,46.6492 39.2114,43.6492 39.5,40.5 Z"/></g>
<g><path style="opacity:1" fill="#7bb69d" d="M 22.5,48.5 C 24.674,48.7497 26.3406,49.7497 27.5,51.5C 25.326,51.2503 23.6594,50.2503 22.5,48.5 Z"/></g>
<g><path style="opacity:1" fill="#9cc8b5" d="M 39.5,40.5 C 39.2114,43.6492 39.7114,46.6492 41,49.5C 41.6667,46.8333 42.3333,46.8333 43,49.5C 43.2784,48.5842 43.7784,47.9175 44.5,47.5C 45.4606,48.2166 46.4606,49.3833 47.5,51C 46.3659,52.016 46.6992,52.6827 48.5,53C 45.6814,54.1435 44.6814,55.9768 45.5,58.5C 44.8333,58.5 44.1667,58.5 43.5,58.5C 43.7257,50.1227 40.559,48.456 34,53.5C 33.5065,55.1341 33.3398,56.8008 33.5,58.5C 31.6214,58.6068 31.2881,58.1068 32.5,57C 31.8971,54.9286 30.5638,53.7619 28.5,53.5C 28.1667,52.8333 27.8333,52.1667 27.5,51.5C 28.1667,51.5 28.8333,51.5 29.5,51.5C 29.4346,51.9382 29.6012,52.2716 30,52.5C 30.7504,51.8742 31.5838,51.3742 32.5,51C 32.9817,49.9916 33.1484,48.825 33,47.5C 34.016,48.6341 34.6827,48.3008 35,46.5C 36.0875,48.9316 36.5875,48.5983 36.5,45.5C 36.5,43.8333 36.5,42.1667 36.5,40.5C 37.5,40.5 38.5,40.5 39.5,40.5 Z"/></g>
<g><path style="opacity:1" fill="#4da181" d="M 23.5,52.5 C 20.6887,52.1743 18.022,51.3409 15.5,50C 18.5391,49.7357 21.2058,50.5691 23.5,52.5 Z"/></g>
<g><path style="opacity:1" fill="#6ead90" d="M 42.5,40.5 C 44.6074,39.5318 46.9407,39.1984 49.5,39.5C 48.5588,41.4664 47.5588,43.4664 46.5,45.5C 46.6236,46.1067 46.9569,46.44 47.5,46.5C 47.5,46.8333 47.5,47.1667 47.5,47.5C 47.369,48.2389 47.5357,48.9056 48,49.5C 49.451,47.5359 51.2843,46.2026 53.5,45.5C 52.3747,47.1288 51.0414,48.6288 49.5,50C 58.0108,46.4232 58.3441,47.0899 50.5,52C 52.4884,52.1805 54.4884,52.0138 56.5,51.5C 54.4907,53.0652 52.1573,54.0652 49.5,54.5C 48.5266,54.9867 47.5266,55.4867 46.5,56C 47.3805,56.7083 48.0472,57.5416 48.5,58.5C 47.5,58.5 46.5,58.5 45.5,58.5C 44.6814,55.9768 45.6814,54.1435 48.5,53C 46.6992,52.6827 46.3659,52.016 47.5,51C 46.4606,49.3833 45.4606,48.2166 44.5,47.5C 45.086,45.1602 46.086,42.9935 47.5,41C 46.6683,40.3123 46.0016,40.479 45.5,41.5C 44.6667,43.1667 43.8333,44.8333 43,46.5C 43.284,44.3208 43.1174,42.3208 42.5,40.5 Z"/></g>
<g><path style="opacity:1" fill="#eaf4f1" d="M 43.5,58.5 C 40.1667,58.5 36.8333,58.5 33.5,58.5C 33.3398,56.8008 33.5065,55.1341 34,53.5C 40.559,48.456 43.7257,50.1227 43.5,58.5 Z"/></g>
<g><path style="opacity:1" fill="#359873" d="M 48.5,58.5 C 48.0472,57.5416 47.3805,56.7083 46.5,56C 47.5266,55.4867 48.5266,54.9867 49.5,54.5C 49.9169,55.1239 50.5836,55.4573 51.5,55.5C 57.3987,53.6826 63.3987,52.8493 69.5,53C 62.8772,54.5483 56.2105,55.8816 49.5,57C 52.1667,57.3333 54.8333,57.6667 57.5,58C 54.5184,58.498 51.5184,58.6646 48.5,58.5 Z"/></g>
<g><path style="opacity:1" fill="#319671" d="M 23.5,52.5 C 25.2161,52.6287 26.8828,52.962 28.5,53.5C 30.5638,53.7619 31.8971,54.9286 32.5,57C 31.2881,58.1068 31.6214,58.6068 33.5,58.5C 36.8333,58.5 40.1667,58.5 43.5,58.5C 44.1667,58.5 44.8333,58.5 45.5,58.5C 46.5,58.5 47.5,58.5 48.5,58.5C 39.6285,59.8202 30.6285,59.6536 21.5,58C 23.5,57.6667 25.5,57.3333 27.5,57C 24.1727,56.3897 20.8394,55.8897 17.5,55.5C 14.6282,54.6746 11.6282,53.8412 8.5,53C 14.5453,53.1729 20.5453,54.0063 26.5,55.5C 27.1667,55.3333 27.8333,55.1667 28.5,55C 26.5087,54.6264 24.842,53.793 23.5,52.5 Z"/></g>
<g><path style="opacity:1" fill="#228b62" d="M 41.5,60.5 C 46.8333,60.5 52.1667,60.5 57.5,60.5C 56.1917,61.2323 54.8584,62.0656 53.5,63C 58.7175,64.5628 64.0509,64.8962 69.5,64C 68.2695,62.5952 66.9361,61.4286 65.5,60.5C 67.8333,60.5 70.1667,60.5 72.5,60.5C 72.5,62.1667 72.5,63.8333 72.5,65.5C 65.7695,65.2264 59.1028,65.7264 52.5,67C 54.1667,67.3333 55.8333,67.6667 57.5,68C 55.2922,68.1909 53.2922,68.6909 51.5,69.5C 48.1667,69.5 44.8333,69.5 41.5,69.5C 39.7078,68.6909 37.7078,68.1909 35.5,68C 42.1667,67.3333 42.1667,66.6667 35.5,66C 37.5,65.6667 39.5,65.3333 41.5,65C 40.5,64.6667 39.5,64.3333 38.5,64C 40.5767,63.8078 42.5767,63.3078 44.5,62.5C 43.3984,61.8243 42.3984,61.1577 41.5,60.5 Z"/></g>
<g><path style="opacity:1" fill="#66ac91" d="M 57.5,60.5 C 60.1667,60.5 62.8333,60.5 65.5,60.5C 66.9361,61.4286 68.2695,62.5952 69.5,64C 64.0509,64.8962 58.7175,64.5628 53.5,63C 54.8584,62.0656 56.1917,61.2323 57.5,60.5 Z"/></g>
<g><path style="opacity:1" fill="#329470" d="M 4.5,60.5 C 13.876,60.9364 23.2094,60.9364 32.5,60.5C 31.1938,61.4674 30.5271,62.8007 30.5,64.5C 27.2129,65.1614 23.8796,65.6614 20.5,66C 23.1667,66.3333 25.8333,66.6667 28.5,67C 25.456,67.3629 22.456,67.8629 19.5,68.5C 18.0484,67.6981 16.3817,67.1981 14.5,67C 17.9877,66.6757 19.9877,64.8424 20.5,61.5C 15.8215,61.3342 11.1548,61.5008 6.5,62C 5.9558,62.7172 5.28913,63.2172 4.5,63.5C 4.5,62.5 4.5,61.5 4.5,60.5 Z"/></g>
<g><path style="opacity:1" fill="#59a181" d="M 19.5,68.5 C 17.5,68.5 15.5,68.5 13.5,68.5C 11.5853,68.2155 9.91866,68.5489 8.5,69.5C 7.29208,68.7659 5.95875,68.4326 4.5,68.5C 4.5,66.8333 4.5,65.1667 4.5,63.5C 5.28913,63.2172 5.9558,62.7172 6.5,62C 11.1548,61.5008 15.8215,61.3342 20.5,61.5C 19.9877,64.8424 17.9877,66.6757 14.5,67C 16.3817,67.1981 18.0484,67.6981 19.5,68.5 Z"/></g>
<g><path style="opacity:1" fill="#63a98c" d="M 32.5,60.5 C 35.5,60.5 38.5,60.5 41.5,60.5C 42.3984,61.1577 43.3984,61.8243 44.5,62.5C 42.5767,63.3078 40.5767,63.8078 38.5,64C 39.5,64.3333 40.5,64.6667 41.5,65C 39.5,65.3333 37.5,65.6667 35.5,66C 42.1667,66.6667 42.1667,67.3333 35.5,68C 37.7078,68.1909 39.7078,68.6909 41.5,69.5C 38.7718,69.1706 36.4385,69.8372 34.5,71.5C 33.391,71.4431 32.391,71.1098 31.5,70.5C 32.2625,69.7321 33.2625,69.2321 34.5,69C 29.1667,68.3333 29.1667,67.6667 34.5,67C 27.8333,66.3333 27.8333,65.6667 34.5,65C 33.2068,64.51 31.8734,64.3433 30.5,64.5C 30.5271,62.8007 31.1938,61.4674 32.5,60.5 Z"/></g>
<g><path style="opacity:1" fill="#126a32" d="M 41.5,69.5 C 44.8333,69.5 48.1667,69.5 51.5,69.5C 58.2954,70.5065 64.9621,71.5065 71.5,72.5C 71.5,72.8333 71.5,73.1667 71.5,73.5C 68.8577,74.8525 66.0244,75.5192 63,75.5C 57.1452,74.2708 51.3118,72.9375 45.5,71.5C 42.6753,71.1191 40.5087,72.1191 39,74.5C 37.871,72.8588 36.371,71.8588 34.5,71.5C 36.4385,69.8372 38.7718,69.1706 41.5,69.5 Z"/></g>
<g><path style="opacity:1" fill="#529a76" d="M 72.5,65.5 C 68.2726,67.2805 63.6059,68.1138 58.5,68C 63.1548,68.4992 67.8215,68.6658 72.5,68.5C 72.5,69.5 72.5,70.5 72.5,71.5C 72.5,72.1667 72.1667,72.5 71.5,72.5C 64.9621,71.5065 58.2954,70.5065 51.5,69.5C 53.2922,68.6909 55.2922,68.1909 57.5,68C 55.8333,67.6667 54.1667,67.3333 52.5,67C 59.1028,65.7264 65.7695,65.2264 72.5,65.5 Z"/></g>
<g><path style="opacity:1" fill="#0e6e39" d="M 30.5,64.5 C 31.8734,64.3433 33.2068,64.51 34.5,65C 27.8333,65.6667 27.8333,66.3333 34.5,67C 29.1667,67.6667 29.1667,68.3333 34.5,69C 33.2625,69.2321 32.2625,69.7321 31.5,70.5C 29.4352,70.5172 27.4352,70.8505 25.5,71.5C 19.1211,71.4842 12.7878,71.3175 6.5,71C 11.2242,72.4942 15.8909,73.6609 20.5,74.5C 14.4968,76.5432 9.1635,75.5432 4.5,71.5C 4.5,70.5 4.5,69.5 4.5,68.5C 5.95875,68.4326 7.29208,68.7659 8.5,69.5C 15.5303,70.9424 22.5303,70.7757 29.5,69C 28.5,68.8333 27.5,68.6667 26.5,68.5C 22.0068,69.6651 17.6735,69.6651 13.5,68.5C 15.5,68.5 17.5,68.5 19.5,68.5C 22.456,67.8629 25.456,67.3629 28.5,67C 25.8333,66.6667 23.1667,66.3333 20.5,66C 23.8796,65.6614 27.2129,65.1614 30.5,64.5 Z"/></g>
<g><path style="opacity:1" fill="#8dbfaa" d="M 8.5,69.5 C 9.91866,68.5489 11.5853,68.2155 13.5,68.5C 17.6735,69.6651 22.0068,69.6651 26.5,68.5C 27.5,68.6667 28.5,68.8333 29.5,69C 22.5303,70.7757 15.5303,70.9424 8.5,69.5 Z"/></g>
<g><path style="opacity:1" fill="#88bca5" d="M 25.5,71.5 C 24.2318,73.047 22.5652,74.047 20.5,74.5C 15.8909,73.6609 11.2242,72.4942 6.5,71C 12.7878,71.3175 19.1211,71.4842 25.5,71.5 Z"/></g>
<g><path style="opacity:1" fill="#e7f0ec" d="M 31.5,70.5 C 32.391,71.1098 33.391,71.4431 34.5,71.5C 36.371,71.8588 37.871,72.8588 39,74.5C 40.5087,72.1191 42.6753,71.1191 45.5,71.5C 51.3118,72.9375 57.1452,74.2708 63,75.5C 66.0244,75.5192 68.8577,74.8525 71.5,73.5C 72.7251,74.1522 73.3917,75.3189 73.5,77C 73.4857,78.3847 73.1524,79.5514 72.5,80.5C 72.6621,78.4727 72.4955,76.4727 72,74.5C 69.5206,76.9168 66.5206,77.9168 63,77.5C 56.9156,76.5838 50.9156,75.2505 45,73.5C 42.3067,73.3602 40.14,74.3602 38.5,76.5C 36.7632,74.1536 34.4299,73.1536 31.5,73.5C 25.6575,75.4452 19.6575,76.7785 13.5,77.5C 9.71894,78.1728 6.88561,76.8395 5,73.5C 4.50454,75.4727 4.33788,77.4727 4.5,79.5C 3.23293,76.9387 3.23293,74.272 4.5,71.5C 9.1635,75.5432 14.4968,76.5432 20.5,74.5C 22.5652,74.047 24.2318,73.047 25.5,71.5C 27.4352,70.8505 29.4352,70.5172 31.5,70.5 Z"/></g>
<g><path style="opacity:1" fill="#07672f" d="M 72.5,80.5 C 71.2287,82.9339 69.2287,84.4339 66.5,85C 59.8333,85.3333 53.1667,85.6667 46.5,86C 43.3548,87.9782 40.6881,90.4782 38.5,93.5C 36.3119,90.4782 33.6452,87.9782 30.5,86C 23.5,85.6667 16.5,85.3333 9.5,85C 6.92096,83.9243 5.25429,82.091 4.5,79.5C 4.33788,77.4727 4.50454,75.4727 5,73.5C 6.88561,76.8395 9.71894,78.1728 13.5,77.5C 19.6575,76.7785 25.6575,75.4452 31.5,73.5C 34.4299,73.1536 36.7632,74.1536 38.5,76.5C 40.14,74.3602 42.3067,73.3602 45,73.5C 50.9156,75.2505 56.9156,76.5838 63,77.5C 66.5206,77.9168 69.5206,76.9168 72,74.5C 72.4955,76.4727 72.6621,78.4727 72.5,80.5 Z"/></g>
</svg>
