<?xml version="1.0" standalone="no"?>
<!DOCTYPE svg PUBLIC "-//W3C//DTD SVG 20010904//EN"
 "http://www.w3.org/TR/2001/REC-SVG-20010904/DTD/svg10.dtd">
<svg version="1.0" xmlns="http://www.w3.org/2000/svg"
 width="512.000000pt" height="512.000000pt" viewBox="0 0 512.000000 512.000000"
 preserveAspectRatio="xMidYMid meet">

<g transform="translate(0.000000,512.000000) scale(0.100000,-0.100000)"
fill="#000000" stroke="none">
<path d="M4567 4699 c-21 -5 -50 -15 -66 -24 -16 -8 -176 -156 -357 -329
l-329 -316 -1607 0 c-1591 0 -1608 0 -1662 -20 -76 -29 -139 -88 -178 -168
l-33 -67 -3 -1302 -2 -1303 -60 0 c-134 0 -212 -39 -251 -125 -51 -111 13
-331 131 -454 65 -68 159 -127 245 -154 l70 -22 2095 0 c2005 0 2098 1 2155
18 147 45 270 145 339 275 62 120 82 261 47 337 -39 86 -117 125 -251 125
l-60 0 -2 1303 -3 1302 -26 56 c-36 76 -89 133 -155 165 l-54 26 136 141 c149
154 184 208 184 288 0 97 -52 184 -132 223 -63 29 -119 38 -171 25z m126 -180
c19 -21 27 -40 27 -65 0 -43 65 27 -818 -891 -200 -208 -242 -257 -242 -280 1
-53 52 -89 100 -71 14 5 90 78 170 163 l145 153 108 1 107 1 0 -1005 0 -1005
-1730 0 -1730 0 0 134 c0 133 0 135 -26 155 -30 24 -43 26 -78 10 -41 -19 -48
-54 -44 -211 3 -131 5 -146 26 -176 48 -67 -100 -62 1852 -62 1952 0 1804 -5
1852 62 l23 33 3 1043 c2 1011 2 1045 -17 1087 -24 55 -58 77 -131 84 l-59 6
90 98 c89 95 92 97 135 97 60 0 118 -31 151 -82 l28 -42 3 -1293 2 -1293
-2080 0 -2080 0 0 1280 c0 1130 2 1285 15 1317 20 48 41 71 87 94 36 18 85 19
1555 19 l1518 0 -100 -100 -100 -100 -1330 0 c-1504 0 -1379 7 -1423 -80 l-22
-45 2 -743 3 -744 24 -19 c30 -25 76 -24 101 1 20 20 20 33 20 750 l0 730
1232 0 1233 0 -30 -29 c-17 -16 -106 -101 -198 -189 -155 -148 -171 -160 -194
-151 -33 12 -108 11 -154 -3 -92 -27 -169 -134 -169 -234 l0 -51 -62 -13
c-205 -40 -301 -173 -323 -450 -11 -133 -46 -197 -153 -282 -78 -63 -97 -100
-79 -155 7 -22 25 -46 44 -59 85 -57 411 -77 565 -36 99 27 173 62 247 118
101 76 195 220 222 340 l12 51 63 1 c174 0 286 154 238 328 -5 18 17 46 115
147 101 105 121 131 121 156 0 41 -31 71 -72 71 -28 0 -49 -16 -150 -117
l-118 -118 -101 101 -101 101 777 746 c428 410 787 748 799 750 38 7 70 -4 99
-34z m-1687 -1661 c182 -180 200 -208 169 -267 -19 -37 -67 -62 -106 -54 -17
3 -86 65 -198 177 -161 162 -171 175 -171 210 0 55 43 96 100 96 41 0 47 -4
206 -162z m-238 -261 c94 -93 112 -117 112 -142 0 -52 -35 -161 -69 -214 -31
-47 -35 -50 -87 -57 -71 -8 -97 8 -119 78 -44 136 -100 183 -217 182 -78 0
-80 2 -52 96 39 132 116 185 254 174 l65 -5 113 -112z m-336 -314 c10 -9 18
-23 18 -32 0 -33 58 -137 93 -168 33 -29 35 -33 19 -41 -63 -33 -267 -48 -385
-29 l-48 8 44 48 c52 56 94 119 111 170 11 29 20 38 52 48 55 16 75 15 96 -4z
m-742 -1343 c8 -109 57 -180 147 -212 56 -19 1390 -19 1446 0 90 32 139 103
147 212 l5 75 744 3 c861 3 798 10 788 -88 -20 -185 -158 -330 -344 -360 -83
-14 -4048 -13 -4132 0 -180 30 -318 177 -338 360 -10 98 -74 91 787 88 l745
-3 5 -75z m1590 29 c0 -63 -11 -84 -51 -98 -45 -15 -1293 -15 -1338 0 -40 14
-51 35 -51 98 l0 51 720 0 720 0 0 -51z"/>
</g>
</svg>
