<svg version="1.1" id="Layer_1" xmlns="http://www.w3.org/2000/svg" xmlns:xlink="http://www.w3.org/1999/xlink" x="0px" y="0px"
	 width="100%" viewBox="0 0 200 200" enable-background="new 0 0 200 200" xml:space="preserve">
<path fill="#141312" opacity="1.000000" stroke="none" 
	d="
M113.000000,201.000000 
	C75.356575,201.000000 38.213150,201.000000 1.034861,201.000000 
	C1.034861,134.398285 1.034861,67.796532 1.034861,1.097392 
	C67.559921,1.097392 134.120041,1.097392 200.840073,1.097392 
	C200.840073,67.666359 200.840073,134.333145 200.840073,201.000000 
	C171.796814,201.000000 142.648407,201.000000 113.000000,201.000000 
M105.017967,86.976723 
	C105.017967,86.976723 104.963165,86.794365 104.416016,87.007065 
	C104.211319,87.330238 104.006615,87.653404 103.910278,87.945587 
	C103.910278,87.945587 103.878059,87.837570 103.204544,88.048340 
	C101.476967,88.738518 99.749390,89.428696 97.095734,89.992058 
	C92.853935,89.992058 88.612144,89.992058 84.382202,89.992058 
	C84.382202,97.732368 84.382202,104.735306 84.382202,112.187485 
	C89.793991,112.187485 94.753822,112.187485 99.728409,112.121696 
	C99.728409,112.121696 99.720985,112.180519 99.970879,112.665268 
	C100.311485,112.729576 100.652100,112.793884 101.635017,113.076294 
	C102.431519,113.390961 103.228020,113.705627 104.138641,114.789825 
	C104.823067,117.265602 105.970078,119.716164 106.106720,122.221809 
	C106.547394,130.302643 105.925659,138.499237 107.027588,146.469513 
	C108.071045,154.016876 111.929733,160.421555 119.954651,163.034729 
	C119.954651,163.034729 119.900162,163.068237 120.070580,163.648239 
	C120.713287,164.039856 121.356003,164.431473 122.563011,165.202698 
	C123.413666,165.464188 124.264320,165.725677 125.595139,166.383865 
	C126.400253,166.540558 127.205368,166.697266 128.572968,167.100861 
	C128.977936,167.121826 129.382919,167.142792 130.241882,167.563995 
	C131.022415,167.583328 131.802948,167.602676 133.545792,167.870209 
	C143.012009,167.862915 152.478210,167.855621 162.487244,167.884171 
	C162.586105,167.574829 162.684967,167.265503 162.908646,166.292923 
	C162.869110,165.845947 162.829575,165.398972 162.997543,164.048950 
	C162.997543,158.147324 162.997543,152.245697 162.997543,146.025620 
	C159.786911,146.025620 157.309875,146.142059 154.847229,146.003418 
	C147.929245,145.613937 141.017197,145.119354 133.772186,144.193237 
	C132.921524,143.426636 132.070877,142.660034 131.173553,140.969437 
	C131.089157,134.499603 131.303421,128.006592 130.803925,121.568962 
	C130.522049,117.936287 129.065140,114.394791 127.976295,110.330574 
	C127.698044,110.148804 127.419792,109.967033 127.115929,109.432854 
	C127.115929,109.432854 126.919769,109.138947 126.915619,108.494286 
	C125.983192,107.636368 125.050774,106.778458 123.799492,105.301926 
	C122.302788,104.220627 120.671341,103.277245 119.364967,102.001099 
	C118.689705,101.341461 118.591362,100.091240 118.640572,99.074173 
	C118.640572,99.074173 119.007034,98.891243 119.375381,99.017799 
	C119.890305,98.669373 120.405220,98.320938 121.474815,98.015015 
	C121.658707,97.991173 121.842606,97.967323 122.452461,98.175316 
	C123.320686,97.454796 124.188911,96.734276 124.993149,96.002136 
	C124.993149,96.002136 124.993034,96.067162 125.508492,95.894112 
	C125.686150,95.591026 125.863808,95.287941 125.982307,94.982697 
	C125.982307,94.982697 125.996788,95.040092 126.548355,94.746521 
	C126.729523,94.155991 126.910690,93.565453 127.001076,93.006271 
	C127.001076,93.006271 127.032463,93.097038 127.624046,92.843208 
	C127.817154,92.249634 128.010269,91.656059 128.119705,91.069046 
	C128.119705,91.069046 128.127930,91.152557 128.745834,90.796219 
	C129.188950,88.399651 129.816132,86.020256 130.041626,83.603386 
	C130.806152,75.408928 131.428574,67.201210 132.527237,58.829899 
	C132.783691,58.637451 132.936096,58.382744 133.532867,57.909733 
	C133.767303,57.622513 134.001724,57.335293 134.133438,57.069805 
	C134.133438,57.069805 134.156952,57.172142 134.971573,57.016750 
	C144.162170,56.462143 153.352753,55.907532 162.628418,55.347790 
	C162.628418,48.261875 162.628418,41.235878 162.628418,33.937687 
	C155.473099,33.937687 148.673111,33.721928 141.894211,34.007263 
	C136.652435,34.227894 131.437088,35.076157 125.587563,35.633251 
	C124.352760,36.308777 123.117966,36.984303 121.157982,37.722240 
	C118.773605,39.495991 116.389221,41.269737 113.439468,43.000584 
	C113.252075,43.312538 113.064682,43.624493 112.960655,43.956402 
	C112.960655,43.956402 112.900269,43.895550 112.284798,44.197170 
	C107.816124,49.338112 106.212761,55.442574 106.169235,62.108456 
	C106.119423,69.736855 105.990570,77.364738 105.773384,85.165352 
	C105.773384,85.165352 105.944679,85.289726 105.338829,85.690170 
	C105.171097,86.137306 105.003365,86.584442 105.017967,86.976723 
M40.949924,156.092148 
	C40.949924,156.092148 40.948242,156.267166 41.363945,156.881180 
	C47.894806,157.163803 54.425259,157.570862 60.956966,157.592194 
	C61.914654,157.595306 63.701962,155.767365 63.705990,154.780930 
	C63.732773,148.219833 63.378654,141.657166 62.953484,134.614227 
	C62.899483,134.449936 62.845486,134.285660 62.503654,133.439713 
	C55.647934,133.238541 48.792484,133.023804 41.935463,132.888702 
	C41.677086,132.883636 41.403496,133.651001 40.906509,134.559799 
	C40.813591,134.718552 40.720673,134.877304 40.048950,135.468079 
	C39.728306,140.529816 39.234196,145.589737 39.180645,150.654297 
	C39.161781,152.438583 40.221275,154.234253 40.949924,156.092148 
M39.199696,46.115341 
	C39.199696,46.115341 39.058445,46.208549 38.614185,46.845402 
	C38.426929,47.984196 38.062920,49.125420 38.078545,50.261425 
	C38.382732,72.376923 38.697624,94.492500 39.148575,116.605240 
	C39.177658,118.031013 40.326416,119.433968 41.534519,121.471611 
	C43.676548,121.561401 45.832790,121.849190 47.957428,121.696693 
	C51.558605,121.438187 55.139832,120.901764 59.514370,120.663544 
	C60.045174,120.607002 60.575981,120.550453 61.694225,120.695869 
	C62.110615,120.705772 62.527004,120.715668 63.626331,120.452721 
	C64.056610,119.087051 64.838722,117.728004 64.864571,116.354721 
	C65.274071,94.596992 65.608299,72.837700 65.876335,51.077736 
	C65.895920,49.487377 65.275421,47.889133 64.777512,46.120132 
	C64.777512,46.120132 64.745949,45.875084 64.480827,45.246136 
	C56.323307,45.074917 48.165939,44.892036 40.007580,44.784237 
	C39.740681,44.780712 39.463684,45.541698 39.199696,46.115341 
z"/>
<path fill="#F87229" opacity="1.000000" stroke="none" 
	d="
M61.106785,120.493912 
	C60.575981,120.550453 60.045174,120.607002 58.758720,120.452606 
	C54.372425,120.079376 50.741776,119.917076 48.610527,119.821800 
	C49.817577,118.226204 52.744839,116.138718 52.740917,114.056763 
	C52.722870,104.485069 51.987808,94.907799 51.316532,85.346115 
	C50.565205,74.644241 49.597004,63.957687 48.741673,53.262985 
	C48.467129,49.830196 47.619732,46.995647 43.328625,46.957333 
	C42.205307,46.947308 41.086315,46.452587 40.413300,46.016514 
	C48.822826,45.860069 56.784389,45.867577 64.745949,45.875084 
	C64.745949,45.875084 64.777512,46.120132 64.783829,46.584274 
	C64.401161,63.842693 64.012169,80.636971 63.471439,97.759338 
	C63.260662,101.845978 63.201626,105.604515 63.269890,109.787079 
	C63.165329,113.502312 62.933468,116.793533 62.492737,120.086365 
	C61.891510,120.223289 61.499146,120.358597 61.106785,120.493912 
z"/>
<path fill="#F7A229" opacity="1.000000" stroke="none" 
	d="
M119.921944,163.089813 
	C111.929733,160.421555 108.071045,154.016876 107.027588,146.469513 
	C105.925659,138.499237 106.547394,130.302643 106.106720,122.221809 
	C105.970078,119.716164 104.823067,117.265602 104.429794,114.471359 
	C107.629303,115.036896 109.134430,114.392860 108.758118,110.929192 
	C108.515007,108.691521 108.872887,106.394951 108.845207,104.126190 
	C108.781357,98.891167 109.051559,93.517624 103.978668,89.629829 
	C103.936523,88.793236 103.907288,88.315399 103.878059,87.837570 
	C103.878059,87.837570 103.910278,87.945587 104.070908,87.784958 
	C104.475418,87.347672 104.719292,87.071022 104.963165,86.794365 
	C104.963165,86.794365 105.017967,86.976723 105.130867,86.726204 
	C105.477409,86.080368 105.711044,85.685051 105.944687,85.289734 
	C105.944679,85.289726 105.773384,85.165352 106.175217,84.892792 
	C107.050995,82.770294 107.884468,80.929886 107.933823,79.068680 
	C108.105827,72.582474 107.786575,66.076874 108.145401,59.605900 
	C108.251785,57.687408 109.976418,55.858650 111.008247,54.378242 
	C111.690750,56.986916 112.739174,59.179409 112.884132,61.430096 
	C113.417274,69.708122 113.493324,78.016281 114.062057,86.291054 
	C114.355865,90.565796 115.324310,94.794159 115.861916,99.326347 
	C115.492836,100.397018 115.249794,101.184814 115.003830,102.406281 
	C115.302643,107.721230 115.510048,112.610527 115.923630,117.482323 
	C117.214508,132.688370 118.583328,147.887817 119.921944,163.089813 
z"/>
<path fill="#F26528" opacity="1.000000" stroke="none" 
	d="
M39.965336,46.180466 
	C41.086315,46.452587 42.205307,46.947308 43.328625,46.957333 
	C47.619732,46.995647 48.467129,49.830196 48.741673,53.262985 
	C49.597004,63.957687 50.565205,74.644241 51.316532,85.346115 
	C51.987808,94.907799 52.722870,104.485069 52.740917,114.056763 
	C52.744839,116.138718 49.817577,118.226204 48.610527,119.821800 
	C50.741776,119.917076 54.372425,120.079376 58.366257,120.361923 
	C55.139832,120.901764 51.558605,121.438187 47.957428,121.696693 
	C45.832790,121.849190 43.676548,121.561401 41.237110,120.716164 
	C40.455875,97.297539 39.972050,74.634361 39.679787,51.861980 
	C40.125584,51.261990 40.379814,50.771198 40.634045,50.280407 
	C40.242882,50.153294 39.851723,50.026180 39.375702,49.532402 
	C39.213379,48.180008 39.135914,47.194279 39.058445,46.208549 
	C39.058445,46.208549 39.199696,46.115341 39.391853,46.077648 
	C39.584015,46.039955 39.965336,46.180462 39.965336,46.180466 
z"/>
<path fill="#FDAD26" opacity="1.000000" stroke="none" 
	d="
M119.938293,163.062271 
	C118.583328,147.887817 117.214508,132.688370 115.923630,117.482323 
	C115.510048,112.610527 115.302643,107.721230 115.300156,102.595963 
	C118.439056,103.541504 121.278702,104.731026 124.118347,105.920540 
	C125.050774,106.778458 125.983192,107.636368 126.856247,108.907013 
	C126.775093,109.576233 126.889984,109.731407 127.141541,109.785271 
	C127.419792,109.967033 127.698044,110.148804 128.028107,111.011658 
	C128.748291,121.770912 129.416672,131.849075 129.876099,142.286652 
	C129.121735,147.870453 128.281799,153.085938 128.122986,158.322052 
	C127.993103,162.603958 126.271782,164.404190 121.846405,163.839844 
	C121.030739,163.468765 120.465454,163.268494 119.900162,163.068237 
	C119.900162,163.068237 119.954651,163.034729 119.938293,163.062271 
z"/>
<path fill="#FDAF26" opacity="1.000000" stroke="none" 
	d="
M115.987946,99.043480 
	C115.324310,94.794159 114.355865,90.565796 114.062057,86.291054 
	C113.493324,78.016281 113.417274,69.708122 112.884132,61.430096 
	C112.739174,59.179409 111.690750,56.986916 111.019470,53.970470 
	C111.621399,50.080669 112.260834,46.988110 112.900269,43.895550 
	C112.900269,43.895550 112.960655,43.956402 113.129364,43.827339 
	C113.564178,43.512939 113.799767,43.294678 114.004845,43.043484 
	C116.389221,41.269737 118.773605,39.495991 121.471466,38.088634 
	C121.632668,39.932480 121.252281,41.427505 121.364540,42.884575 
	C122.189087,53.586838 122.842125,64.314445 124.140549,74.961945 
	C124.641991,79.074036 126.678337,82.998955 128.015045,87.423813 
	C128.052460,88.943176 128.090195,90.047867 128.127930,91.152557 
	C128.127930,91.152557 128.119705,91.069046 127.938950,91.269623 
	C127.516281,92.012482 127.274376,92.554764 127.032471,93.097038 
	C127.032463,93.097038 127.001076,93.006271 126.842705,93.208565 
	C126.455147,93.953934 126.225967,94.497017 125.996788,95.040092 
	C125.996788,95.040092 125.982307,94.982697 125.808968,95.135590 
	C125.421425,95.548042 125.207230,95.807602 124.993034,96.067162 
	C124.993034,96.067162 124.993149,96.002136 124.697403,96.028587 
	C123.609940,96.684517 122.818222,97.313995 122.026505,97.943474 
	C121.842606,97.967323 121.658707,97.991173 120.930969,98.038834 
	C119.927094,98.338852 119.467064,98.615044 119.007034,98.891235 
	C119.007034,98.891243 118.640572,99.074173 118.062752,99.074738 
	C116.985939,99.064697 116.486938,99.054085 115.987946,99.043480 
z"/>
<path fill="#FDB826" opacity="1.000000" stroke="none" 
	d="
M128.015381,87.009148 
	C126.678337,82.998955 124.641991,79.074036 124.140549,74.961945 
	C122.842125,64.314445 122.189087,53.586838 121.364540,42.884575 
	C121.252281,41.427505 121.632668,39.932480 121.834061,38.057426 
	C123.117966,36.984303 124.352760,36.308777 126.380524,35.722019 
	C128.776413,35.875534 130.379364,35.940285 131.986908,36.463661 
	C132.366516,43.031742 132.741516,49.141197 133.255920,55.485744 
	C133.649185,56.204601 133.903076,56.688374 134.156952,57.172142 
	C134.156952,57.172142 134.133438,57.069805 133.942810,57.186676 
	C133.496262,57.557621 133.240356,57.811699 132.984451,58.065781 
	C132.936096,58.382744 132.783691,58.637451 131.977173,59.062271 
	C130.625168,62.361885 129.422623,65.388451 129.106216,68.504982 
	C128.482681,74.646652 128.350693,80.838219 128.015381,87.009148 
z"/>
<path fill="#F5922E" opacity="1.000000" stroke="none" 
	d="
M99.713661,112.187485 
	C94.753822,112.187485 89.793991,112.187485 84.382202,112.187485 
	C84.382202,104.735306 84.382202,97.732368 84.382202,89.992058 
	C88.612144,89.992058 92.853935,89.992058 97.587517,90.300430 
	C98.079300,90.608810 98.162369,91.095070 97.986298,91.408020 
	C96.394043,98.733856 96.152412,105.637512 99.713661,112.187485 
z"/>
<path fill="#FBB628" opacity="1.000000" stroke="none" 
	d="
M122.096786,164.010681 
	C126.271782,164.404190 127.993103,162.603958 128.122986,158.322052 
	C128.281799,153.085938 129.121735,147.870453 130.159729,142.286819 
	C130.841614,141.916199 131.030914,141.904816 131.220215,141.893433 
	C132.070877,142.660034 132.921524,143.426636 134.135315,144.717209 
	C135.985001,145.859009 137.471558,146.476852 139.123413,147.259247 
	C139.517822,147.635925 139.759552,147.832520 140.044128,148.383240 
	C141.053253,154.507034 142.032150,160.261169 142.602631,166.032608 
	C137.466507,166.030746 132.738815,166.011597 127.647995,165.984512 
	C126.561577,165.980103 125.838272,165.983643 125.114975,165.987167 
	C124.264320,165.725677 123.413666,165.464188 122.306435,164.809937 
	C122.049858,164.417160 122.096786,164.010681 122.096786,164.010681 
z"/>
<path fill="#FD9E26" opacity="1.000000" stroke="none" 
	d="
M99.721039,112.154587 
	C96.152412,105.637512 96.394043,98.733856 98.352409,91.376389 
	C100.593590,90.684074 102.292587,90.336334 103.991585,89.988594 
	C109.051559,93.517624 108.781357,98.891167 108.845207,104.126190 
	C108.872887,106.394951 108.515007,108.691521 108.758118,110.929192 
	C109.134430,114.392860 107.629303,115.036896 104.372726,114.086594 
	C103.228020,113.705627 102.431519,113.390961 101.117752,112.826157 
	C100.328232,112.397682 100.035065,112.265854 99.720985,112.180519 
	C99.720985,112.180519 99.728409,112.121696 99.721039,112.154587 
z"/>
<path fill="#EB622B" opacity="1.000000" stroke="none" 
	d="
M62.791492,134.121384 
	C62.845486,134.285660 62.899483,134.449936 62.915485,135.063904 
	C62.604332,135.698578 62.331177,135.883575 61.656494,136.033478 
	C59.293003,135.823059 57.198925,135.141083 55.404713,135.608978 
	C53.450607,136.118576 50.311577,137.603683 50.235382,138.822662 
	C49.934155,143.642014 49.827381,148.809555 51.398087,153.225662 
	C51.939964,154.749176 57.579872,154.463745 60.893265,154.990372 
	C61.214611,155.041443 61.552010,154.991486 61.737717,155.403900 
	C54.711731,155.968658 47.829987,156.117920 40.948242,156.267166 
	C40.948242,156.267166 40.949924,156.092148 40.894398,155.591858 
	C40.768497,148.406387 40.698128,141.721207 40.627754,135.036041 
	C40.720673,134.877304 40.813591,134.718552 41.476337,134.340012 
	C48.961273,134.120605 55.876385,134.121002 62.791492,134.121384 
z"/>
<path fill="#E1C048" opacity="1.000000" stroke="none" 
	d="
M131.982300,36.005032 
	C130.379364,35.940285 128.776413,35.875534 126.691727,35.728088 
	C131.437088,35.076157 136.652435,34.227894 141.894211,34.007263 
	C148.673111,33.721928 155.473099,33.937687 162.628418,33.937687 
	C162.628418,41.235878 162.628418,48.261875 162.628418,55.347790 
	C153.352753,55.907532 144.162170,56.462143 134.564270,57.094444 
	C133.903076,56.688374 133.649185,56.204601 133.658081,55.432220 
	C136.941956,54.763355 139.963043,54.383095 143.438812,54.017990 
	C146.918716,54.029377 149.943954,54.025604 153.414902,54.037182 
	C160.992432,54.092541 160.990143,54.092461 161.229721,47.269547 
	C161.247147,46.773163 161.390091,46.277733 161.377777,45.784275 
	C161.100677,34.676037 163.732086,36.006588 151.524170,35.908638 
	C148.043793,35.916939 145.016098,35.936749 141.534912,35.945110 
	C138.048386,35.957451 135.015350,35.981239 131.982300,36.005032 
z"/>
<path fill="#3E1406" opacity="1.000000" stroke="none" 
	d="
M63.623184,97.431252 
	C64.012169,80.636971 64.401161,63.842693 64.871323,46.671486 
	C65.275421,47.889133 65.895920,49.487377 65.876335,51.077736 
	C65.608299,72.837700 65.274071,94.596992 64.864571,116.354721 
	C64.838722,117.728004 64.056610,119.087051 63.227337,120.428032 
	C62.828342,120.403343 62.701614,120.084747 62.701611,120.084747 
	C62.933468,116.793533 63.165329,113.502312 63.441826,109.386909 
	C63.532032,104.852234 63.577610,101.141739 63.623184,97.431252 
z"/>
<path fill="#3E1406" opacity="1.000000" stroke="none" 
	d="
M39.488224,51.971180 
	C39.972050,74.634361 40.455875,97.297539 40.947006,120.404129 
	C40.326416,119.433968 39.177658,118.031013 39.148575,116.605240 
	C38.697624,94.492500 38.382732,72.376923 38.078545,50.261425 
	C38.062920,49.125420 38.426929,47.984196 38.836315,46.526978 
	C39.135914,47.194279 39.213379,48.180008 39.314159,49.876812 
	C39.387722,51.048985 39.437973,51.510082 39.488224,51.971180 
z"/>
<path fill="#F2A32B" opacity="1.000000" stroke="none" 
	d="
M112.592529,44.046360 
	C112.260834,46.988110 111.621399,50.080669 110.970741,53.581001 
	C109.976418,55.858650 108.251785,57.687408 108.145401,59.605900 
	C107.786575,66.076874 108.105827,72.582474 107.933823,79.068680 
	C107.884468,80.929886 107.050995,82.770294 106.236549,84.806541 
	C105.990570,77.364738 106.119423,69.736855 106.169235,62.108456 
	C106.212761,55.442574 107.816124,49.338112 112.592529,44.046360 
z"/>
<path fill="#3D170E" opacity="1.000000" stroke="none" 
	d="
M62.058022,136.068558 
	C62.331177,135.883575 62.604332,135.698578 63.012924,135.304306 
	C63.378654,141.657166 63.732773,148.219833 63.705990,154.780930 
	C63.701962,155.767365 61.914654,157.595306 60.956966,157.592194 
	C54.425259,157.570862 47.894806,157.163803 41.156094,156.574173 
	C47.829987,156.117920 54.711731,155.968658 61.776188,154.937683 
	C61.991943,148.060165 62.024982,142.064362 62.058022,136.068558 
z"/>
<path fill="#F2C941" opacity="1.000000" stroke="none" 
	d="
M128.011108,165.992432 
	C132.738815,166.011597 137.466507,166.030746 143.069122,166.035721 
	C149.971817,165.681686 155.999634,165.341827 162.219025,165.003510 
	C162.410599,165.005051 162.790054,164.951996 162.790054,164.951996 
	C162.829575,165.398972 162.869110,165.845947 162.666199,166.731583 
	C162.206451,167.355606 162.046677,167.581635 161.944427,167.848328 
	C152.478210,167.855621 143.012009,167.862915 132.815292,167.622467 
	C131.319153,167.304398 130.553528,167.234085 129.787888,167.163773 
	C129.382919,167.142792 128.977936,167.121826 128.289612,166.762039 
	C128.006271,166.423218 128.011108,165.992432 128.011108,165.992432 
z"/>
<path fill="#DEA93B" opacity="1.000000" stroke="none" 
	d="
M131.196884,141.431427 
	C131.030914,141.904816 130.841614,141.916199 130.368683,141.927399 
	C129.416672,131.849075 128.748291,121.770912 128.108719,111.252487 
	C129.065140,114.394791 130.522049,117.936287 130.803925,121.568962 
	C131.303421,128.006592 131.089157,134.499603 131.196884,141.431427 
z"/>
<path fill="#3E1406" opacity="1.000000" stroke="none" 
	d="
M40.413300,46.016510 
	C39.965336,46.180462 39.584015,46.039955 39.387703,45.993134 
	C39.463684,45.541698 39.740681,44.780712 40.007580,44.784237 
	C48.165939,44.892036 56.323307,45.074917 64.613388,45.560608 
	C56.784389,45.867577 48.822826,45.860069 40.413300,46.016510 
z"/>
<path fill="#CDAC48" opacity="1.000000" stroke="none" 
	d="
M162.893799,164.500473 
	C162.790054,164.951996 162.410599,165.005051 162.227783,164.663910 
	C162.034790,163.870239 162.024612,163.417694 162.031311,162.501724 
	C162.050613,158.565353 161.946777,155.088165 162.085449,151.620697 
	C162.223480,148.169388 160.647476,146.915802 157.314117,146.994873 
	C151.198090,147.139908 145.077057,147.073151 138.958099,147.094696 
	C137.471558,146.476852 135.985001,145.859009 134.300629,144.953705 
	C141.017197,145.119354 147.929245,145.613937 154.847229,146.003418 
	C157.309875,146.142059 159.786911,146.025620 162.997543,146.025620 
	C162.997543,152.245697 162.997543,158.147324 162.893799,164.500473 
z"/>
<path fill="#3D170E" opacity="1.000000" stroke="none" 
	d="
M62.647575,133.780548 
	C55.876385,134.121002 48.961273,134.120605 41.591579,134.089325 
	C41.403496,133.651001 41.677086,132.883636 41.935463,132.888702 
	C48.792484,133.023804 55.647934,133.238541 62.647575,133.780548 
z"/>
<path fill="#EDB842" opacity="1.000000" stroke="none" 
	d="
M128.015045,87.423813 
	C128.350693,80.838219 128.482681,74.646652 129.106216,68.504982 
	C129.422623,65.388451 130.625168,62.361885 131.766174,59.146599 
	C131.428574,67.201210 130.806152,75.408928 130.041626,83.603386 
	C129.816132,86.020256 129.188950,88.399651 128.436890,90.974388 
	C128.090195,90.047867 128.052460,88.943176 128.015045,87.423813 
z"/>
<path fill="#3D170E" opacity="1.000000" stroke="none" 
	d="
M40.338356,135.252060 
	C40.698128,141.721207 40.768497,148.406387 40.813637,155.558136 
	C40.221275,154.234253 39.161781,152.438583 39.180645,150.654297 
	C39.234196,145.589737 39.728306,140.529816 40.338356,135.252060 
z"/>
<path fill="#F2A32B" opacity="1.000000" stroke="none" 
	d="
M115.861916,99.326347 
	C116.486938,99.054085 116.985939,99.064697 117.858643,99.091568 
	C118.591362,100.091240 118.689705,101.341461 119.364967,102.001099 
	C120.671341,103.277245 122.302788,104.220627 123.958923,105.611237 
	C121.278702,104.731026 118.439056,103.541504 115.303078,102.162308 
	C115.249794,101.184814 115.492836,100.397018 115.861916,99.326347 
z"/>
<path fill="#F2A32B" opacity="1.000000" stroke="none" 
	d="
M103.978668,89.629829 
	C102.292587,90.336334 100.593590,90.684074 98.528481,91.063446 
	C98.162369,91.095070 98.079300,90.608810 98.050552,90.363846 
	C99.749390,89.428696 101.476967,88.738518 103.541306,87.942955 
	C103.907288,88.315399 103.936523,88.793236 103.978668,89.629829 
z"/>
<path fill="#EDB842" opacity="1.000000" stroke="none" 
	d="
M122.239487,98.059395 
	C122.818222,97.313995 123.609940,96.684517 124.729393,96.034393 
	C124.188911,96.734276 123.320686,97.454796 122.239487,98.059395 
z"/>
<path fill="#F7A229" opacity="1.000000" stroke="none" 
	d="
M121.846405,163.839844 
	C122.096786,164.010681 122.049858,164.417160 122.024284,164.620117 
	C121.356003,164.431473 120.713287,164.039856 119.985367,163.358246 
	C120.465454,163.268494 121.030739,163.468765 121.846405,163.839844 
z"/>
<path fill="#F2A32B" opacity="1.000000" stroke="none" 
	d="
M119.191208,98.954514 
	C119.467064,98.615044 119.927094,98.338852 120.653625,98.017578 
	C120.405220,98.320938 119.890305,98.669373 119.191208,98.954514 
z"/>
<path fill="#FBB628" opacity="1.000000" stroke="none" 
	d="
M130.014893,167.363892 
	C130.553528,167.234085 131.319153,167.304398 132.334137,167.498367 
	C131.802948,167.602676 131.022415,167.583328 130.014893,167.363892 
z"/>
<path fill="#F7A229" opacity="1.000000" stroke="none" 
	d="
M127.647995,165.984497 
	C128.011108,165.992432 128.006271,166.423218 128.008377,166.638580 
	C127.205368,166.697266 126.400253,166.540558 125.355057,166.185516 
	C125.838272,165.983643 126.561577,165.980103 127.647995,165.984497 
z"/>
<path fill="#EDB842" opacity="1.000000" stroke="none" 
	d="
M126.272568,94.893311 
	C126.225967,94.497017 126.455147,93.953934 126.888100,93.192886 
	C126.910690,93.565453 126.729523,94.155991 126.272568,94.893311 
z"/>
<path fill="#F26528" opacity="1.000000" stroke="none" 
	d="
M62.492744,120.086365 
	C62.701614,120.084747 62.828342,120.403343 62.885868,120.564453 
	C62.527004,120.715668 62.110615,120.705772 61.400505,120.594894 
	C61.499146,120.358597 61.891510,120.223289 62.492744,120.086365 
z"/>
<path fill="#EDB842" opacity="1.000000" stroke="none" 
	d="
M127.328262,92.970123 
	C127.274376,92.554764 127.516281,92.012482 127.980774,91.266342 
	C128.010269,91.656059 127.817154,92.249634 127.328262,92.970123 
z"/>
<path fill="#F5922E" opacity="1.000000" stroke="none" 
	d="
M99.845932,112.422897 
	C100.035065,112.265854 100.328232,112.397682 100.796600,112.717102 
	C100.652100,112.793884 100.311485,112.729576 99.845932,112.422897 
z"/>
<path fill="#DEA93B" opacity="1.000000" stroke="none" 
	d="
M127.128738,109.609062 
	C126.889984,109.731407 126.775093,109.576233 126.858322,109.229347 
	C126.919769,109.138947 127.115929,109.432854 127.128738,109.609062 
z"/>
<path fill="#EDB842" opacity="1.000000" stroke="none" 
	d="
M125.250763,95.980637 
	C125.207230,95.807602 125.421425,95.548042 125.838547,95.136673 
	C125.863808,95.287941 125.686150,95.591026 125.250763,95.980637 
z"/>
<path fill="#F2A32B" opacity="1.000000" stroke="none" 
	d="
M104.689590,86.900711 
	C104.719292,87.071022 104.475418,87.347672 104.016724,87.800453 
	C104.006615,87.653404 104.211319,87.330238 104.689590,86.900711 
z"/>
<path fill="#F2A32B" opacity="1.000000" stroke="none" 
	d="
M105.641754,85.489952 
	C105.711044,85.685051 105.477409,86.080368 105.039703,86.753632 
	C105.003365,86.584442 105.171097,86.137306 105.641754,85.489952 
z"/>
<path fill="#EDB842" opacity="1.000000" stroke="none" 
	d="
M133.258667,57.987755 
	C133.240356,57.811699 133.496262,57.557621 133.994171,57.175812 
	C134.001724,57.335293 133.767303,57.622513 133.258667,57.987755 
z"/>
<path fill="#F2A32B" opacity="1.000000" stroke="none" 
	d="
M113.722153,43.022034 
	C113.799767,43.294678 113.564178,43.512939 113.087677,43.817364 
	C113.064682,43.624493 113.252075,43.312538 113.722153,43.022034 
z"/>
<path fill="#CDAC48" opacity="1.000000" stroke="none" 
	d="
M162.215836,167.866241 
	C162.046677,167.581635 162.206451,167.355606 162.603790,167.063202 
	C162.684967,167.265503 162.586105,167.574829 162.215836,167.866241 
z"/>
<path fill="#F26528" opacity="1.000000" stroke="none" 
	d="
M63.471443,97.759338 
	C63.577610,101.141739 63.532032,104.852234 63.314526,108.962891 
	C63.201626,105.604515 63.260662,101.845978 63.471443,97.759338 
z"/>
<path fill="#F87229" opacity="1.000000" stroke="none" 
	d="
M39.679787,51.861980 
	C39.437973,51.510082 39.387722,51.048985 39.399017,50.243477 
	C39.851723,50.026180 40.242882,50.153294 40.634045,50.280407 
	C40.379814,50.771198 40.125584,51.261990 39.679787,51.861980 
z"/>
<path fill="#FEC226" opacity="1.000000" stroke="none" 
	d="
M131.986908,36.463654 
	C135.015350,35.981239 138.048386,35.957451 141.539398,36.387054 
	C142.326263,42.561245 142.655197,48.282043 142.984131,54.002838 
	C139.963043,54.383095 136.941956,54.763355 133.518692,55.197136 
	C132.741516,49.141197 132.366516,43.031742 131.986908,36.463654 
z"/>
<path fill="#FEC625" opacity="1.000000" stroke="none" 
	d="
M162.014435,162.965164 
	C162.024612,163.417694 162.034790,163.870239 162.036209,164.662384 
	C155.999634,165.341827 149.971817,165.681686 143.477539,166.018417 
	C142.032150,160.261169 141.053253,154.507034 140.511124,148.376831 
	C146.073380,148.007370 151.200775,148.101624 156.323669,147.989624 
	C159.707321,147.915665 161.022018,149.374573 161.071426,152.731216 
	C161.121719,156.146423 161.679092,159.554153 162.014435,162.965164 
z"/>
<path fill="#F2C941" opacity="1.000000" stroke="none" 
	d="
M162.031311,162.501724 
	C161.679092,159.554153 161.121719,156.146423 161.071426,152.731216 
	C161.022018,149.374573 159.707321,147.915665 156.323669,147.989624 
	C151.200775,148.101624 146.073380,148.007370 140.480896,148.007172 
	C139.759552,147.832520 139.517822,147.635925 139.123413,147.259262 
	C145.077057,147.073151 151.198090,147.139908 157.314117,146.994873 
	C160.647476,146.915802 162.223480,148.169388 162.085449,151.620697 
	C161.946777,155.088165 162.050613,158.565353 162.031311,162.501724 
z"/>
<path fill="#FB6D28" opacity="1.000000" stroke="none" 
	d="
M61.656494,136.033478 
	C62.024982,142.064362 61.991943,148.060165 61.920429,154.522186 
	C61.552010,154.991486 61.214611,155.041443 60.893265,154.990372 
	C57.579872,154.463745 51.939964,154.749176 51.398087,153.225662 
	C49.827381,148.809555 49.934155,143.642014 50.235382,138.822662 
	C50.311577,137.603683 53.450607,136.118576 55.404713,135.608978 
	C57.198925,135.141083 59.293003,135.823059 61.656494,136.033478 
z"/>
<path fill="#FECC25" opacity="1.000000" stroke="none" 
	d="
M143.438812,54.017994 
	C142.655197,48.282043 142.326263,42.561245 141.992874,36.398506 
	C145.016098,35.936749 148.043793,35.916939 151.531036,36.360115 
	C152.316788,42.556011 152.642990,48.288918 152.969193,54.021828 
	C149.943954,54.025604 146.918716,54.029377 143.438812,54.017994 
z"/>
<path fill="#FED527" opacity="1.000000" stroke="none" 
	d="
M153.414902,54.037182 
	C152.642990,48.288918 152.316788,42.556011 151.983704,36.371628 
	C163.732086,36.006588 161.100677,34.676037 161.377777,45.784275 
	C161.390091,46.277733 161.247147,46.773163 161.229721,47.269547 
	C160.990143,54.092461 160.992432,54.092541 153.414902,54.037182 
z"/>
</svg>