<svg width="15" height="16" viewBox="0 0 15 16" fill="none" xmlns="http://www.w3.org/2000/svg">
<path d="M4.56808 15.2498C2.86876 15.2498 1.33675 14.2262 0.686344 12.6563C0.0359343 11.0863 0.395188 9.2792 1.59661 8.07742L3.37983 6.2942L4.56808 7.48245L2.7857 9.26483C2.14877 9.90176 1.90002 10.8301 2.13315 11.7002C2.36628 12.5702 3.04588 13.2498 3.91595 13.483C4.78602 13.7161 5.71436 13.4674 6.3513 12.8304L8.13368 11.0481L9.32193 12.2371L7.53955 14.0195C6.75304 14.8099 5.6831 15.2529 4.56808 15.2498ZM5.1622 11.6422L3.97395 10.4539L9.91605 4.51182L11.1043 5.70008L5.16304 11.6413L5.1622 11.6422ZM11.6993 9.8598L10.5102 8.67155L12.2926 6.88917C12.9382 6.25414 13.1936 5.32164 12.9617 4.44626C12.7298 3.57088 12.0462 2.88714 11.1709 2.65503C10.2955 2.42292 9.36298 2.67812 8.7278 3.32357L6.94458 5.10595L5.75633 3.9177L7.53955 2.13448C9.1825 0.505857 11.8329 0.51166 13.4687 2.14746C15.1045 3.78327 15.1103 6.43363 13.4817 8.07658L11.6993 9.85896V9.8598Z" fill="#79819A"/>
</svg>
