<?xml version="1.0" encoding="UTF-8"?>
<!DOCTYPE svg PUBLIC "-//W3C//DTD SVG 1.1//EN" "http://www.w3.org/Graphics/SVG/1.1/DTD/svg11.dtd">
<svg xmlns="http://www.w3.org/2000/svg" version="1.1" width="176px" height="215px" style="shape-rendering:geometricPrecision; text-rendering:geometricPrecision; image-rendering:optimizeQuality; fill-rule:evenodd; clip-rule:evenodd" xmlns:xlink="http://www.w3.org/1999/xlink">
<g><path style="opacity:0.999" fill="#1a4d9a" d="M 97.5,5.5 C 120.059,17.4498 142.392,29.9498 164.5,43C 166.037,44.1096 166.703,45.6096 166.5,47.5C 162.818,47.6653 159.152,47.4986 155.5,47C 136.99,36.2444 118.323,25.7444 99.5,15.5C 80.7087,25.7303 62.042,36.2303 43.5,47C 42.3394,71.0942 42.1728,95.2609 43,119.5C 50.62,124.056 58.12,128.722 65.5,133.5C 52.6535,141.497 39.6535,149.331 26.5,157C 50.8386,170.836 75.172,184.669 99.5,198.5C 114.291,190.603 128.957,182.437 143.5,174C 150.167,173.333 156.833,173.333 163.5,174C 142.729,187.137 121.562,199.637 100,211.5C 70.2703,194.719 40.7703,177.552 11.5,160C 8.78206,158.585 8.11539,156.585 9.5,154C 22.4939,147.172 35.1605,139.838 47.5,132C 42.0828,129.21 36.9161,126.043 32,122.5C 31.3333,96.5 31.3333,70.5 32,44.5C 53.814,31.348 75.6473,18.348 97.5,5.5 Z"/></g>
<g><path style="opacity:0.998" fill="#020202" d="M 97.5,27.5 C 100.425,27.4598 103.091,28.2932 105.5,30C 118.368,37.9322 131.368,45.5989 144.5,53C 148.205,56.6508 149.539,61.1508 148.5,66.5C 140.493,66.6664 132.493,66.4997 124.5,66C 116.323,61.1507 108.157,56.3173 100,51.5C 90.3492,56.8262 80.6826,62.1595 71,67.5C 70.3333,78.5 70.3333,89.5 71,100.5C 80.6276,104.812 89.6276,110.146 98,116.5C 98.8315,124.188 98.6648,131.855 97.5,139.5C 81.9206,131.13 66.754,122.13 52,112.5C 51.3333,93.5 51.3333,74.5 52,55.5C 67.1469,46.016 82.3136,36.6826 97.5,27.5 Z"/></g>
<g><path style="opacity:0.995" fill="#020202" d="M 99.5,75.5 C 115.685,83.8436 131.518,92.8436 147,102.5C 147.22,120.514 147.72,138.514 148.5,156.5C 148.167,157.833 147.833,159.167 147.5,160.5C 131.397,169.94 115.064,178.94 98.5,187.5C 80.3824,178.61 63.0491,168.443 46.5,157C 52.4203,151.873 59.087,148.04 66.5,145.5C 77.3993,151.061 88.066,157.061 98.5,163.5C 108.108,158.4 117.608,153.066 127,147.5C 127.667,136.5 127.667,125.5 127,114.5C 117.735,109.697 108.735,104.364 100,98.5C 99.5003,90.8406 99.3336,83.1739 99.5,75.5 Z"/></g>
</svg>
