<?xml version="1.0" standalone="no"?>
<!DOCTYPE svg PUBLIC "-//W3C//DTD SVG 20010904//EN"
 "http://www.w3.org/TR/2001/REC-SVG-20010904/DTD/svg10.dtd">
<svg version="1.0" xmlns="http://www.w3.org/2000/svg"
 width="512.000000pt" height="512.000000pt" viewBox="0 0 512.000000 512.000000"
 preserveAspectRatio="xMidYMid meet">

<g transform="translate(0.000000,512.000000) scale(0.100000,-0.100000)"
fill="#000000" stroke="none">
<path d="M2584 5040 c-104 -15 -212 -64 -286 -129 -26 -23 -117 -120 -203
-216 l-156 -174 -37 14 c-20 7 -125 45 -232 83 -107 39 -370 134 -584 211
-214 78 -403 141 -419 141 -26 0 -53 -23 -178 -147 -155 -153 -171 -179 -149
-232 8 -21 140 -118 511 -376 l499 -347 -32 -37 c-419 -467 -553 -611 -582
-625 -44 -21 -87 -20 -220 4 -191 35 -165 45 -353 -143 -177 -177 -184 -188
-144 -252 16 -27 51 -43 314 -144 l295 -113 106 -277 c88 -231 108 -293 120
-378 53 -364 214 -724 459 -1028 35 -44 115 -129 176 -188 334 -323 739 -523
1196 -592 148 -23 432 -23 580 0 624 94 1173 445 1515 970 126 194 273 553
287 701 6 60 4 64 -25 93 -23 23 -40 31 -67 31 -55 0 -88 -38 -110 -130 -119
-496 -451 -943 -898 -1212 l-81 -49 -204 203 c-112 112 -210 217 -218 235 -21
48 -20 390 2 441 10 25 125 148 343 367 320 322 329 332 369 415 60 127 64
157 60 480 l-3 285 -34 62 c-66 122 -176 197 -314 212 -128 15 -157 51 -157
198 0 71 4 95 20 121 35 58 59 62 354 62 l265 0 71 -82 c97 -112 218 -297 284
-432 49 -100 118 -291 147 -405 15 -61 48 -91 99 -91 46 0 85 30 96 74 23 91
-148 522 -295 741 -363 546 -945 902 -1581 967 -63 6 -116 12 -117 13 -1 0 6
28 17 62 27 87 32 161 22 303 -10 139 -25 182 -84 236 -42 40 -85 62 -134 68
-77 10 -260 13 -310 6z m283 -206 c36 -7 43 -35 46 -176 2 -148 -10 -204 -62
-276 -16 -21 -403 -375 -861 -786 -457 -412 -845 -767 -861 -789 -37 -51 -69
-154 -69 -221 1 -28 9 -96 19 -151 l19 -100 -61 -62 -61 -62 -91 235 c-50 130
-101 246 -112 258 -12 12 -125 61 -257 111 l-235 90 60 61 60 61 107 -19 c182
-32 296 -12 391 68 19 16 371 402 782 859 410 456 757 836 770 844 49 30 102
53 142 61 40 8 227 4 274 -6z m-1621 -275 c291 -105 532 -194 536 -198 4 -3
-61 -82 -144 -174 l-150 -168 -27 17 c-34 22 -762 527 -824 572 l-49 35 53 53
c30 30 58 54 65 54 6 0 249 -86 540 -191z m1995 -415 c287 -40 566 -145 810
-306 l81 -53 -179 -5 c-168 -5 -181 -7 -234 -33 -66 -32 -132 -99 -162 -165
-19 -41 -22 -64 -22 -192 0 -138 1 -148 28 -202 52 -106 151 -169 291 -187 63
-7 85 -15 115 -38 70 -57 72 -65 69 -368 l-3 -270 -29 -65 c-27 -59 -63 -98
-363 -401 -283 -285 -336 -344 -360 -395 l-28 -59 0 -245 0 -245 32 -68 c28
-58 60 -96 215 -253 100 -101 179 -186 177 -188 -12 -12 -246 -79 -336 -96
-277 -53 -605 -42 -871 29 l-42 12 0 296 0 297 194 195 c107 108 202 212 212
231 28 52 26 181 -3 235 -32 60 -279 300 -333 324 -60 27 -150 27 -210 0 -25
-11 -76 -51 -115 -89 l-70 -69 -315 -3 c-276 -3 -320 -5 -354 -21 -22 -9 -90
-67 -151 -127 -61 -61 -114 -110 -117 -110 -7 0 -58 151 -79 230 -6 25 -19 90
-29 145 l-18 100 129 131 c150 153 143 134 109 334 -11 63 -20 129 -20 145 1
71 26 99 355 395 176 158 323 286 327 283 4 -2 145 -207 314 -456 169 -248
314 -462 323 -474 20 -28 54 -43 94 -43 27 0 51 20 179 148 138 138 148 150
148 185 0 23 -79 269 -201 625 -111 323 -202 593 -203 600 0 6 71 77 159 157
l160 144 107 0 c59 1 158 -6 219 -15z m-627 -964 l176 -514 -52 -53 c-29 -29
-55 -53 -59 -53 -8 0 -580 841 -581 854 -1 17 327 304 334 292 3 -6 86 -243
182 -526z m-71 -1548 c94 -95 117 -124 117 -147 0 -23 -34 -63 -195 -225 -121
-122 -201 -211 -212 -235 -15 -34 -18 -81 -23 -322 l-5 -282 -108 54 c-267
133 -522 343 -691 567 -65 87 -166 246 -166 263 0 6 58 68 128 138 l129 127
309 0 c305 0 310 1 359 24 28 13 78 53 115 90 94 96 97 95 243 -52z"/>
<path d="M4954 2286 c-37 -37 -43 -70 -20 -115 47 -90 186 -50 186 55 0 38
-59 94 -100 94 -23 0 -41 -9 -66 -34z"/>
</g>
</svg>
